<?xml version="1.0" standalone="no"?>
<!DOCTYPE svg PUBLIC "-//W3C//DTD SVG 1.1//EN" "http://www.w3.org/Graphics/SVG/1.1/DTD/svg11.dtd" >
<svg>
<metadata>
Created by FontForge 20110222 at Mon Mar 16 22:11:23 2015
 By www-data
Copyright (c) 2012 by Flanker. All rights reserved.
</metadata>
<defs>
<font id="ItalianTypewriter" horiz-adv-x="960" >
  <font-face 
    font-family="Italian Typewriter"
    font-weight="400"
    font-style="italic"
    font-stretch="normal"
    units-per-em="2000"
    panose-1="2 6 5 9 2 8 6 8 4 4"
    ascent="1600"
    descent="-400"
    x-height="730"
    cap-height="1000"
    bbox="0 -380 960 1424"
    underline-thickness="150"
    underline-position="-150"
    stemh="100"
    stemv="100"
    unicode-range="U+0020-2265"
  />
<missing-glyph 
d="M800 -200h-640c-28 0 -50 22 -50 50v1300c0 28 22 50 50 50h640c28 0 50 -22 50 -50v-1300c0 -28 -22 -50 -50 -50zM750 1100h-540v-1200h540v1200z" />
    <glyph glyph-name=".notdef" 
d="M800 -200h-640c-28 0 -50 22 -50 50v1300c0 28 22 50 50 50h640c28 0 50 -22 50 -50v-1300c0 -28 -22 -50 -50 -50zM750 1100h-540v-1200h540v1200z" />
    <glyph glyph-name="space" unicode=" " 
 />
    <glyph glyph-name="hyphen" unicode="-" 
d="M760 460c0 -28 -22 -50 -50 -50h-460c-28 0 -50 22 -50 50s22 50 50 50h460c28 0 50 -22 50 -50z" />
    <glyph glyph-name="period" unicode="." 
d="M380 70c0 55 45 100 100 100s100 -45 100 -100s-45 -100 -100 -100s-100 45 -100 100z" />
    <glyph glyph-name="zero" unicode="0" 
d="M110 500c0 293 166 530 370 530s370 -237 370 -530s-166 -530 -370 -530s-370 237 -370 530zM220 500c0 -237 116 -430 260 -430s260 193 260 430s-116 430 -260 430s-260 -193 -260 -430z" />
    <glyph glyph-name="one" unicode="1" 
d="M845 50c0 -28 -22 -50 -50 -50h-610c-28 0 -50 22 -50 50s22 50 50 50h250v791l-219 -137c-9 -5 -18 -8 -27 -8c-25 0 -50 22 -50 51c0 16 8 32 24 42l296 184c7 4 16 7 26 7c28 0 50 -22 50 -50v-880h260c28 0 50 -22 50 -50z" />
    <glyph glyph-name="two" unicode="2" 
d="M170 750c0 130 120 280 332 280s333 -126 333 -300c0 -181 -151 -255 -308 -333c-135 -67 -270 -140 -293 -297h516c28 0 50 -22 50 -50s-22 -50 -50 -50h-580c-28 0 -50 22 -50 50c0 255 188 350 363 437c128 64 242 124 242 243c0 116 -75 200 -223 200
s-232 -96 -232 -180c0 -28 -22 -50 -50 -50s-50 22 -50 50z" />
    <glyph glyph-name="three" unicode="3" 
d="M260 960c0 25 17 42 35 48c26 9 70 22 121 22c155 0 279 -121 279 -272c0 -103 -57 -183 -124 -235c104 -50 204 -155 204 -327c0 -192 -183 -366 -431 -366c-75 0 -155 20 -186 35c-15 7 -28 23 -28 45c0 28 22 50 50 50c10 0 19 -3 24 -6c16 -11 75 -24 140 -24
c190 0 321 126 321 266c0 176 -141 259 -237 264c-27 1 -48 22 -48 50c0 23 14 42 35 48c83 23 170 93 170 200c0 95 -70 172 -169 172c-30 0 -58 -6 -88 -17c-3 -1 -10 -3 -18 -3c-28 0 -50 22 -50 50z" />
    <glyph glyph-name="four" unicode="4" 
d="M560 1030c28 0 50 -22 50 -50v-670h170c28 0 50 -22 50 -50s-22 -50 -50 -50h-170v-350c0 -28 -22 -50 -50 -50s-50 22 -50 50v350h-380c-28 0 -50 22 -50 50c0 9 2 18 7 26l430 720c8 14 24 24 43 24zM218 310h292v488z" />
    <glyph glyph-name="five" unicode="5" 
d="M160 950c0 28 22 50 50 50h480c28 0 50 -22 50 -50s-22 -50 -50 -50h-430v-280c47 27 110 50 185 50c201 0 310 -147 310 -340c0 -312 -421 -459 -578 -517c-2 -1 -9 -3 -17 -3c-28 0 -50 22 -50 50c0 24 16 41 33 47c136 50 502 181 502 423c0 137 -65 240 -200 240
c-100 0 -170 -55 -198 -84c-9 -10 -23 -16 -37 -16c-28 0 -50 22 -50 50v430z" />
    <glyph glyph-name="six" unicode="6" 
d="M780 1026c-8 0 -11 1 -17 3c-13 5 -43 5 -64 5c-169 0 -358 -152 -427 -420c60 48 136 76 218 76c196 0 355 -161 355 -360s-159 -360 -355 -360c-168 0 -355 133 -355 422c0 468 307 742 564 742c41 0 70 -3 92 -9s39 -24 39 -49c0 -28 -22 -50 -50 -50zM490 590
c-127 0 -232 -103 -244 -235c13 -196 131 -285 244 -285c135 0 245 116 245 260s-110 260 -245 260z" />
    <glyph glyph-name="seven" unicode="7" 
d="M840 950c0 -10 -3 -19 -7 -26c-166 -273 -301 -553 -301 -863c0 -61 7 -134 17 -191c0 -2 1 -5 1 -10c0 -28 -22 -50 -50 -50c-27 0 -45 20 -49 41c-13 71 -19 145 -19 210c0 305 117 576 270 839h-486l-9 -133c-2 -28 -25 -49 -53 -47s-48 26 -46 54l12 179
c1 26 23 47 50 47h620c28 0 50 -22 50 -50z" />
    <glyph glyph-name="eight" unicode="8" 
d="M180 895c0 152 134 275 300 275s300 -123 300 -275c0 -91 -48 -171 -121 -221c114 -64 191 -188 191 -329c0 -207 -166 -375 -370 -375s-370 168 -370 375c0 141 77 264 191 328c-73 50 -121 131 -121 222zM220 345c0 -152 116 -275 260 -275s260 123 260 275
s-116 275 -260 275s-260 -123 -260 -275zM290 895c0 -97 85 -175 190 -175s190 78 190 175s-85 175 -190 175s-190 -78 -190 -175z" />
    <glyph glyph-name="nine" unicode="9" 
d="M190 -190h-3c-28 0 -50 22 -50 50c0 27 20 49 47 50c324 17 532 177 560 511c-73 -62 -174 -111 -287 -111c-196 0 -355 161 -355 360s159 360 355 360c158 0 400 -97 400 -530c0 -453 -259 -667 -666 -690h-1zM457 410c131 0 239 83 287 159c-21 292 -177 361 -287 361
c-135 0 -245 -116 -245 -260s110 -260 245 -260z" />
    <glyph glyph-name="colon" unicode=":" 
d="M380 570c0 55 45 100 100 100s100 -45 100 -100s-45 -100 -100 -100s-100 45 -100 100zM380 140c0 55 45 100 100 100s100 -45 100 -100s-45 -100 -100 -100s-100 45 -100 100z" />
    <glyph glyph-name="equal" unicode="=" 
d="M860 270c0 -28 -22 -50 -50 -50h-660c-28 0 -50 22 -50 50s22 50 50 50h660c28 0 50 -22 50 -50zM860 570c0 -28 -22 -50 -50 -50h-660c-28 0 -50 22 -50 50s22 50 50 50h660c28 0 50 -22 50 -50z" />
    <glyph glyph-name="E" unicode="E" 
d="M839 393c28 0 50 -20 50 -49c0 -6 -1 -15 -2 -24l-28 -273c-3 -27 -23 -47 -50 -47h-691c-28 0 -50 22 -50 50s22 50 50 50h160v800h-160c-28 0 -50 22 -50 50s22 50 50 50h662c24 0 43 -17 49 -39l60 -244c1 -4 2 -9 2 -13c0 -25 -22 -49 -51 -49c-22 0 -42 15 -48 38
l-52 207h-362v-300h211v100c0 28 22 50 50 50s50 -22 50 -50v-320c0 -28 -22 -50 -50 -50s-50 22 -50 50v120h-211v-400h386l26 248c3 26 24 45 49 45z" />
    <glyph glyph-name="F" unicode="F" 
d="M617 280c-28 0 -50 22 -50 50v150h-185v-380h221c28 0 50 -22 50 -50s-22 -50 -50 -50h-481c-28 0 -50 22 -50 50s22 50 50 50h160v800h-160c-28 0 -50 22 -50 50s22 50 50 50h689c27 0 48 -21 50 -47l25 -349c0 -1 1 -14 1 -20c0 -28 -20 -49 -50 -49
c-26 0 -48 19 -50 46l-23 319h-382v-320h185v120c0 28 22 50 50 50s50 -22 50 -50v-370c0 -28 -22 -50 -50 -50z" />
    <glyph glyph-name="H" unicode="H" 
d="M675 900h-80c-28 0 -50 22 -50 50s22 50 50 50h280c28 0 50 -22 50 -50s-22 -50 -50 -50h-100v-800h110c28 0 50 -22 50 -50s-22 -50 -50 -50h-300c-28 0 -50 22 -50 50s22 50 50 50h90v375h-390v-375h90c28 0 50 -22 50 -50s-22 -50 -50 -50h-300c-28 0 -50 22 -50 50
s22 50 50 50h110v800h-100c-28 0 -50 22 -50 50s22 50 50 50h280c28 0 50 -22 50 -50s-22 -50 -50 -50h-80v-325h390v325z" />
    <glyph glyph-name="I" unicode="I" 
d="M840 50c0 -28 -22 -50 -50 -50h-620c-28 0 -50 22 -50 50s22 50 50 50h260v800h-250c-28 0 -50 22 -50 50s22 50 50 50h600c28 0 50 -22 50 -50s-22 -50 -50 -50h-250v-800h260c28 0 50 -22 50 -50z" />
    <glyph glyph-name="L" unicode="L" 
d="M848 0h-736c-28 0 -50 22 -50 50s22 50 50 50h236v800h-225c-28 0 -50 22 -50 50s22 50 50 50h535c28 0 50 -22 50 -50s-22 -50 -50 -50h-210v-800h350v325c0 28 22 50 50 50s50 -22 50 -50v-375c0 -28 -22 -50 -50 -50z" />
    <glyph glyph-name="O" unicode="O" 
d="M105 500c0 293 144 530 375 530s375 -237 375 -530s-170 -530 -375 -530c-231 0 -375 237 -375 530zM215 500c0 -237 96 -430 265 -430c149 0 265 193 265 430s-96 430 -265 430s-265 -193 -265 -430z" />
    <glyph glyph-name="S" unicode="S" 
d="M185 400c28 0 50 -22 50 -50c0 -166 134 -280 273 -280c116 0 207 77 207 196c0 176 -125 222 -247 246c-159 31 -323 63 -323 266c0 170 163 252 290 252c101 0 194 -38 260 -94v14c0 28 22 50 50 50s50 -22 50 -50v-200c0 -28 -22 -50 -50 -50s-50 22 -50 50
c0 91 -122 180 -260 180c-83 0 -180 -50 -180 -152c0 -123 112 -145 231 -168c165 -32 339 -86 339 -344c0 -179 -147 -296 -317 -296c-104 0 -203 45 -273 121v-41c0 -28 -22 -50 -50 -50s-50 22 -50 50v300c0 28 22 50 50 50z" />
    <glyph glyph-name="T" unicode="T" 
d="M797 518c-28 -2 -52 18 -54 46l-23 336h-190v-800h220c28 0 50 -22 50 -50s-22 -50 -50 -50h-540c-28 0 -50 22 -50 50s22 50 50 50h220v800h-190l-23 -336c-2 -28 -26 -48 -54 -46c-27 2 -48 25 -46 53l27 382c2 26 22 47 50 47h572c28 0 48 -21 50 -47l27 -382
c2 -28 -19 -51 -46 -53z" />
    <glyph glyph-name="U" unicode="U" 
d="M940 950c0 -28 -22 -50 -50 -50h-100v-655c0 -147 -138 -265 -310 -265s-310 118 -310 265v655h-100c-28 0 -50 22 -50 50s22 50 50 50h310c28 0 50 -22 50 -50s-22 -50 -50 -50h-110v-655c0 -91 94 -165 210 -165s210 74 210 165v655h-110c-28 0 -50 22 -50 50
s22 50 50 50h310c28 0 50 -22 50 -50z" />
    <glyph glyph-name="b" unicode="b" 
d="M530 760c190 0 295 -177 295 -395s-115 -395 -296 -395c-78 0 -149 36 -199 88v-8c0 -28 -22 -50 -50 -50s-50 22 -50 50v850h-120c-28 0 -50 22 -50 50s22 50 50 50h166h4c28 0 50 -22 50 -50v-277c50 54 118 87 200 87zM530 660c-130 0 -200 -132 -200 -295
s73 -295 199 -295c121 0 186 132 186 295s-55 295 -185 295z" />
    <glyph glyph-name="c" unicode="c" 
d="M617 500c0 35 20 66 49 80c-34 45 -96 80 -172 80c-156 0 -242 -130 -242 -300c0 -169 110 -290 230 -290c119 0 198 92 219 140c7 17 24 30 46 30c28 0 50 -22 50 -50c0 -9 -2 -16 -4 -20c-34 -74 -145 -200 -311 -200c-170 0 -340 163 -340 390c0 226 132 400 352 400
c180 0 303 -140 303 -260c0 -50 -40 -90 -90 -90s-90 40 -90 90z" />
    <glyph glyph-name="d" unicode="d" 
d="M420 760c82 0 149 -33 200 -87v227h-150c-28 0 -50 22 -50 50s22 50 50 50h200c28 0 50 -22 50 -50v-850h100c28 0 50 -22 50 -50s-22 -50 -50 -50h-150c-28 0 -50 22 -50 50v8c-50 -52 -121 -88 -199 -88c-181 0 -296 177 -296 395s105 395 295 395zM420 660
c-130 0 -185 -132 -185 -295s65 -295 186 -295c126 0 199 132 199 295s-70 295 -200 295z" />
    <glyph glyph-name="e" unicode="e" 
d="M769 350h-518c6 -156 109 -280 235 -280c78 0 152 46 194 120c8 17 25 29 46 29c28 0 50 -22 50 -50c0 -10 -3 -19 -8 -27c-62 -103 -164 -172 -282 -172c-190 0 -345 177 -345 395s155 395 345 395c179 0 317 -159 333 -360c0 -28 -22 -50 -50 -50zM486 660
c-107 0 -196 -89 -225 -210h441c-27 122 -110 210 -216 210z" />
    <glyph glyph-name="f" unicode="f" 
d="M778 50c0 -28 -22 -50 -50 -50h-560c-28 0 -50 22 -50 50s22 50 50 50h210v530h-210c-28 0 -50 22 -50 50s22 50 50 50h210v59c0 147 73 241 262 241c176 0 240 -83 240 -164c0 -57 -33 -106 -92 -106c-50 0 -90 40 -90 90c0 27 11 51 30 67c-22 8 -51 13 -88 13
c-117 0 -162 -48 -162 -131v-69h220c28 0 50 -22 50 -50s-22 -50 -50 -50h-220v-530h250c28 0 50 -22 50 -50z" />
    <glyph glyph-name="g" unicode="g" 
d="M475 760c60 0 115 -20 159 -53c52 38 111 53 162 53c87 0 134 -44 134 -120c0 -50 -40 -90 -90 -90s-90 40 -90 90c0 5 0 7 1 13c-18 -4 -33 -11 -49 -21c21 -36 33 -78 33 -122c0 -138 -116 -250 -260 -250c-53 0 -101 14 -142 40c-79 -2 -138 -33 -138 -70
c0 -35 40 -68 97 -77c51 11 111 17 178 17c263 0 410 -87 410 -235s-147 -235 -410 -235s-410 87 -410 235c0 72 35 130 101 170c-44 33 -76 78 -76 125c0 72 70 133 162 158c-21 36 -32 78 -32 122c0 138 116 250 260 250zM470 70c-197 0 -300 -47 -300 -135
s103 -135 300 -135s300 47 300 135s-134 135 -300 135zM475 660c-83 0 -150 -67 -150 -150s67 -150 150 -150s150 67 150 150s-67 150 -150 150z" />
    <glyph glyph-name="h" unicode="h" 
d="M30 950c0 28 22 50 50 50h170c28 0 50 -22 50 -50v-387c65 83 177 197 290 197s200 -84 200 -204v-456h90c28 0 50 -22 50 -50s-22 -50 -50 -50h-280c-28 0 -50 22 -50 50s22 50 50 50h90v355c0 106 -1 205 -104 205c-76 0 -225 -155 -286 -275v-285h80
c28 0 50 -22 50 -50s-22 -50 -50 -50h-300c-28 0 -50 22 -50 50s22 50 50 50h120v800h-120c-28 0 -50 22 -50 50z" />
    <glyph glyph-name="i" unicode="i" 
d="M150 680c0 28 22 50 50 50h300c28 0 50 -22 50 -50v-580h260c28 0 50 -22 50 -50s-22 -50 -50 -50h-620c-28 0 -50 22 -50 50s22 50 50 50h260v530h-250c-28 0 -50 22 -50 50zM397 920c0 50 40 90 90 90s90 -40 90 -90s-40 -90 -90 -90s-90 40 -90 90z" />
    <glyph glyph-name="j" unicode="j" 
d="M197 55c13 9 31 15 50 15c50 0 90 -40 90 -90s-40 -90 -90 -90h-1c15 -46 60 -90 134 -90c91 0 160 78 160 220v610h-250c-28 0 -50 22 -50 50s22 50 50 50h300c28 0 50 -22 50 -50v-660c0 -206 -111 -320 -260 -320c-160 0 -240 124 -240 227c0 54 20 103 57 128z
M460 920c0 50 40 90 90 90s90 -40 90 -90s-40 -90 -90 -90s-90 40 -90 90z" />
    <glyph glyph-name="l" unicode="l" 
d="M425 900h-190c-28 0 -50 22 -50 50s22 50 50 50h240c28 0 50 -22 50 -50v-850h260c28 0 50 -22 50 -50s-22 -50 -50 -50h-610c-28 0 -50 22 -50 50s22 50 50 50h250v800z" />
    <glyph glyph-name="n" unicode="n" 
d="M50 680c0 28 22 50 50 50h170c28 0 50 -22 50 -50v-117c65 83 177 197 290 197s200 -84 200 -204v-456h90c28 0 50 -22 50 -50s-22 -50 -50 -50h-280c-28 0 -50 22 -50 50s22 50 50 50h90v355c0 106 -1 205 -104 205c-76 0 -225 -155 -286 -275v-285h80
c28 0 50 -22 50 -50s-22 -50 -50 -50h-300c-28 0 -50 22 -50 50s22 50 50 50h120v530h-120c-28 0 -50 22 -50 50z" />
    <glyph glyph-name="o" unicode="o" 
d="M135 365c0 218 155 395 345 395s345 -177 345 -395s-155 -395 -345 -395s-345 177 -345 395zM245 365c0 -163 105 -295 235 -295s235 132 235 295s-105 295 -235 295s-235 -132 -235 -295z" />
    <glyph glyph-name="p" unicode="p" 
d="M539 760c181 0 296 -177 296 -395s-105 -395 -295 -395c-82 0 -150 32 -200 87v-227h130c28 0 50 -22 50 -50s-22 -50 -50 -50h-350c-28 0 -50 22 -50 50s22 50 50 50h120v800h-100c-28 0 -50 22 -50 50s22 50 50 50h150c28 0 50 -22 50 -50v-9c50 53 121 89 199 89z
M539 660c-126 0 -199 -132 -199 -295s70 -295 200 -295s185 132 185 295s-65 295 -186 295z" />
    <glyph glyph-name="q" unicode="q" 
d="M431 760c78 0 149 -36 199 -89v9c0 28 22 50 50 50s50 -22 50 -50v-850h120c28 0 50 -22 50 -50s-22 -50 -50 -50h-350c-28 0 -50 22 -50 50s22 50 50 50h130v227c-51 -55 -118 -87 -200 -87c-190 0 -295 177 -295 395s115 395 296 395zM431 660
c-121 0 -186 -132 -186 -295s55 -295 185 -295s200 132 200 295s-73 295 -199 295z" />
    <glyph glyph-name="u" unicode="u" 
d="M765 680v-580h120c28 0 50 -22 50 -50s-22 -50 -50 -50h-170c-28 0 -50 22 -50 50v121c-70 -83 -196 -201 -311 -201c-113 0 -189 84 -189 204v456h-90c-28 0 -50 22 -50 50s22 50 50 50h140c28 0 50 -22 50 -50v-428c0 -134 34 -182 93 -182c76 0 242 156 307 277v283
h-80c-28 0 -50 22 -50 50s22 50 50 50h130c28 0 50 -22 50 -50z" />
    <glyph glyph-name="degree" unicode="&#xb0;" 
d="M255 805c0 124 101 225 225 225s225 -101 225 -225s-101 -225 -225 -225s-225 101 -225 225zM365 805c0 -69 52 -125 115 -125s115 56 115 125s-52 125 -115 125s-115 -56 -115 -125z" />
    <glyph glyph-name="Euro" unicode="&#x20ac;" 
d="M730 320c0 28 22 50 50 50s50 -22 50 -50c0 -204 -135 -350 -285 -350c-188 0 -294 148 -333 350h-92c-28 0 -50 22 -50 50s22 50 50 50h78c-2 29 -3 59 -3 90c0 30 1 60 5 90h-80c-28 0 -50 22 -50 50s22 50 50 50h98c47 190 164 330 312 330c70 0 127 -29 170 -76
c2 26 23 46 50 46c28 0 50 -22 50 -50v-321c0 -26 -21 -49 -50 -49s-50 23 -50 49c0 173 -61 301 -170 301c-96 0 -168 -95 -202 -230h252c28 0 50 -22 50 -50s-22 -50 -50 -50h-270c-3 -29 -5 -60 -5 -90c0 -31 1 -61 3 -90h152c28 0 50 -22 50 -50s-22 -50 -50 -50h-138
c29 -146 99 -250 223 -250c97 0 185 102 185 250z" />
    <glyph glyph-name="plus" unicode="+" 
d="M860 420c0 -28 -22 -50 -50 -50h-280v-280c0 -28 -22 -50 -50 -50s-50 22 -50 50v280h-280c-28 0 -50 22 -50 50s22 50 50 50h280v280c0 28 22 50 50 50s50 -22 50 -50v-280h280c28 0 50 -22 50 -50z" />
    <glyph glyph-name="endash" unicode="&#x2013;" 
d="M850 420c0 -28 -22 -50 -50 -50h-640c-28 0 -50 22 -50 50s22 50 50 50h640c28 0 50 -22 50 -50z" />
    <glyph glyph-name="emdash" unicode="&#x2014;" 
d="M890 420c0 -28 -22 -50 -50 -50h-720c-28 0 -50 22 -50 50s22 50 50 50h720c28 0 50 -22 50 -50z" />
    <glyph glyph-name="minus" unicode="&#x2212;" 
d="M860 420c0 -28 -22 -50 -50 -50h-660c-28 0 -50 22 -50 50s22 50 50 50h660c28 0 50 -22 50 -50z" />
    <glyph glyph-name="thorn" unicode="&#xfe;" 
d="M539 760c181 0 296 -177 296 -395s-105 -395 -295 -395c-82 0 -150 32 -200 87v-227h130c28 0 50 -22 50 -50s-22 -50 -50 -50h-350c-28 0 -50 22 -50 50s22 50 50 50h120v1070h-100c-28 0 -50 22 -50 50s22 50 50 50h150c28 0 50 -22 50 -50v-279c50 53 121 89 199 89z
M539 660c-126 0 -199 -132 -199 -295s70 -295 200 -295s185 132 185 295s-65 295 -186 295z" />
    <glyph glyph-name="underscore" unicode="_" 
d="M960 -220c0 -28 -22 -50 -50 -50h-860c-28 0 -50 22 -50 50s22 50 50 50h860c28 0 50 -22 50 -50z" />
    <glyph glyph-name="J" unicode="J" 
d="M560 900h-150c-28 0 -50 22 -50 50s22 50 50 50h430c28 0 50 -22 50 -50s-22 -50 -50 -50h-180v-650c0 -141 -95 -280 -275 -280c-145 0 -265 82 -265 273c0 78 42 187 130 187c50 0 90 -40 90 -90s-40 -90 -90 -90c-10 0 -19 1 -27 4c-2 -12 -3 -24 -3 -37
c0 -97 74 -147 165 -147c114 0 175 89 175 180v650z" />
    <glyph glyph-name="Q" unicode="Q" 
d="M782 -65c7 21 25 35 48 35c28 0 50 -22 50 -50c0 -5 -1 -10 -2 -15c0 0 -48 -155 -152 -155c-128 0 -136 141 -158 235c-25 -9 -58 -15 -88 -15c-231 0 -375 237 -375 530s144 530 375 530s375 -237 375 -530c0 -201 -80 -375 -196 -465c14 -64 30 -185 67 -185
c30 0 56 85 56 85zM215 500c0 -129 28 -245 81 -324c30 46 80 94 159 94c89 0 139 -58 171 -130c72 77 119 209 119 360c0 237 -96 430 -265 430s-265 -193 -265 -430zM480 70c22 0 43 4 64 12c-17 51 -43 88 -89 88s-73 -38 -87 -67c32 -21 70 -33 112 -33z" />
    <glyph glyph-name="P" unicode="P" 
d="M600 50c0 -28 -22 -50 -50 -50h-420c-28 0 -50 22 -50 50s22 50 50 50h140v800h-130c-28 0 -50 22 -50 50s22 50 50 50h450c144 0 260 -116 260 -260s-116 -260 -260 -260h-220v-380h180c28 0 50 -22 50 -50zM590 900h-220v-320h220c83 0 150 72 150 160
s-67 160 -150 160z" />
    <glyph glyph-name="R" unicode="R" 
d="M505 50c0 -28 -22 -50 -50 -50h-370c-28 0 -50 22 -50 50s22 50 50 50h140v800h-130c-28 0 -50 22 -50 50s22 50 50 50h510c144 0 260 -116 260 -260c0 -121 -82 -223 -194 -252c59 -89 97 -234 104 -388h100c28 0 50 -22 50 -50s-22 -50 -50 -50h-160
c-28 0 -50 22 -50 50c0 220 -48 430 -130 430h-210v-380h130c28 0 50 -22 50 -50zM605 900h-280v-320h280c83 0 150 72 150 160s-67 160 -150 160z" />
    <glyph glyph-name="Z" unicode="Z" 
d="M820 50c0 -28 -22 -50 -50 -50h-610c-28 0 -50 22 -50 50c0 10 3 20 8 28l548 822h-386v-200c0 -28 -22 -50 -50 -50s-50 22 -50 50v250c0 28 22 50 50 50h530c28 0 50 -22 50 -50c0 -11 -3 -20 -8 -28l-548 -822h466v250c0 28 22 50 50 50s50 -22 50 -50v-300z" />
    <glyph glyph-name="circumflex" unicode="&#x2c6;" 
d="M193 847c-9 10 -13 22 -13 33c0 14 6 28 17 38l249 223c9 8 20 13 34 13c13 0 25 -5 34 -13l249 -223c11 -10 17 -24 17 -38c0 -27 -24 -50 -51 -50c-11 0 -23 4 -33 13l-216 194l-216 -194c-10 -9 -22 -13 -34 -13c-13 0 -27 6 -37 17z" />
    <glyph glyph-name="caron" unicode="&#x2c7;" 
d="M193 1121c10 11 24 17 37 17c12 0 24 -4 34 -13l216 -194l216 194c10 9 22 13 33 13c27 0 51 -23 51 -51c0 -13 -6 -27 -17 -37l-249 -223c-9 -8 -21 -13 -34 -13c-14 0 -25 5 -34 13l-249 223c-11 10 -17 24 -17 37c0 12 4 24 13 34z" />
    <glyph glyph-name="florin" unicode="&#x192;" 
d="M53 -162c0 28 22 50 50 50c21 0 40 -13 47 -32c13 -32 47 -56 101 -56c97 0 149 65 149 210v620h-240c-28 0 -50 22 -50 50s22 50 50 50h240v88c0 114 103 212 236 212c142 0 234 -80 234 -180c0 -50 -40 -90 -90 -90s-90 40 -90 90c0 25 10 48 27 65
c-21 9 -49 15 -81 15c-77 0 -136 -44 -136 -102v-98h190c28 0 50 -22 50 -50s-22 -50 -50 -50h-190v-610c0 -215 -86 -320 -249 -320c-103 0 -166 49 -192 114c-4 7 -6 15 -6 24z" />
    <glyph glyph-name="Zcaron" unicode="&#x17d;" 
d="M820 50c0 -28 -22 -50 -50 -50h-610c-28 0 -50 22 -50 50c0 10 3 20 8 28l548 822h-386v-200c0 -28 -22 -50 -50 -50s-50 22 -50 50v250c0 28 22 50 50 50h530c28 0 50 -22 50 -50c0 -11 -3 -20 -8 -28l-548 -822h466v250c0 28 22 50 50 50s50 -22 50 -50v-300zM193 1391
c10 11 24 17 37 17c12 0 24 -4 34 -13l216 -194l216 194c10 9 22 13 33 13c27 0 51 -23 51 -51c0 -13 -6 -27 -17 -37l-249 -223c-9 -8 -21 -13 -34 -13c-14 0 -25 5 -34 13l-249 223c-11 10 -17 24 -17 37c0 12 4 24 13 34z" />
    <glyph glyph-name="K" unicode="K" 
d="M465 50c0 -28 -22 -50 -50 -50h-340c-28 0 -50 22 -50 50s22 50 50 50h120v800h-110c-28 0 -50 22 -50 50s22 50 50 50h310c28 0 50 -22 50 -50s-22 -50 -50 -50h-100v-454l368 454h-48c-28 0 -50 22 -50 50s22 50 50 50h260c28 0 50 -22 50 -50s-22 -50 -50 -50h-83
l-293 -362l273 -438h113c28 0 50 -22 50 -50s-22 -50 -50 -50h-290c-28 0 -50 22 -50 50s22 50 50 50h60l-223 356l-137 -170v-186h120c28 0 50 -22 50 -50z" />
    <glyph glyph-name="M" unicode="M" 
d="M365 50c0 -28 -22 -50 -50 -50h-250c-28 0 -50 22 -50 50s22 50 50 50h70v800h-60c-28 0 -50 22 -50 50s22 50 50 50h230c26 0 45 -20 50 -46l125 -641l125 641c5 26 23 46 50 46h230c28 0 50 -22 50 -50s-22 -50 -50 -50h-60v-800h70c28 0 50 -22 50 -50
s-22 -50 -50 -50h-250c-28 0 -50 22 -50 50s22 50 50 50h80v800h-29l-167 -860c-4 -23 -25 -40 -49 -40s-45 17 -49 40l-167 860h-29v-800h80c28 0 50 -22 50 -50z" />
    <glyph glyph-name="grave" unicode="`" 
d="M330 1094l129 -240c2 -4 3 -7 3 -10c0 -11 -16 -19 -34 -19c-15 0 -32 4 -43 15l-223 224c-13 13 -20 23 -20 33c0 26 40 45 84 45c39 0 85 -12 104 -48z" />
    <glyph glyph-name="ellipsis" unicode="&#x2026;" 
d="M380 70c0 55 45 100 100 100s100 -45 100 -100s-45 -100 -100 -100s-100 45 -100 100zM80 70c0 55 45 100 100 100s100 -45 100 -100s-45 -100 -100 -100s-100 45 -100 100zM680 70c0 55 45 100 100 100s100 -45 100 -100s-45 -100 -100 -100s-100 45 -100 100z" />
    <glyph glyph-name="guilsinglleft" unicode="&#x2039;" 
d="M215 370c0 14 7 29 18 38l330 277c9 7 20 11 32 11c27 0 50 -22 50 -50c0 -14 -6 -28 -18 -38l-284 -238l284 -238c12 -10 18 -24 18 -38c0 -28 -23 -50 -50 -50c-12 0 -23 4 -32 11l-330 277c-11 9 -18 24 -18 38z" />
    <glyph glyph-name="guillemotleft" unicode="&#xab;" 
d="M480 73c-10 -9 -22 -13 -34 -13c-13 0 -27 6 -37 17l-233 259c-8 9 -13 20 -13 34c0 13 5 25 13 34l233 259c10 11 24 17 37 17c28 0 51 -24 51 -51c0 -11 -4 -23 -13 -33l-204 -226l204 -226c9 -10 13 -22 13 -34c0 -13 -6 -27 -17 -37zM780 73c-10 -9 -22 -13 -34 -13
c-13 0 -27 6 -37 17l-233 259c-8 9 -13 20 -13 34c0 13 5 25 13 34l233 259c10 11 24 17 37 17c28 0 51 -24 51 -51c0 -11 -4 -23 -13 -33l-204 -226l204 -226c9 -10 13 -22 13 -34c0 -13 -6 -27 -17 -37z" />
    <glyph glyph-name="guillemotright" unicode="&#xbb;" 
d="M480 73c-11 10 -17 24 -17 37c0 12 4 24 13 34l204 226l-204 226c-9 10 -13 22 -13 33c0 27 23 51 51 51c13 0 27 -6 37 -17l233 -259c8 -9 13 -21 13 -34c0 -14 -5 -25 -13 -34l-233 -259c-10 -11 -24 -17 -37 -17c-12 0 -24 4 -34 13zM180 73c-11 10 -17 24 -17 37
c0 12 4 24 13 34l204 226l-204 226c-9 10 -13 22 -13 33c0 27 23 51 51 51c13 0 27 -6 37 -17l233 -259c8 -9 13 -21 13 -34c0 -14 -5 -25 -13 -34l-233 -259c-10 -11 -24 -17 -37 -17c-12 0 -24 4 -34 13z" />
    <glyph glyph-name="Ugrave" unicode="&#xd9;" 
d="M940 950c0 -28 -22 -50 -50 -50h-100v-655c0 -147 -138 -265 -310 -265s-310 118 -310 265v655h-100c-28 0 -50 22 -50 50s22 50 50 50h310c28 0 50 -22 50 -50s-22 -50 -50 -50h-110v-655c0 -91 94 -165 210 -165s210 74 210 165v655h-110c-28 0 -50 22 -50 50
s22 50 50 50h310c28 0 50 -22 50 -50zM364 1364l129 -240c2 -4 3 -7 3 -10c0 -11 -16 -19 -34 -19c-15 0 -32 4 -43 15l-223 224c-13 13 -20 23 -20 33c0 26 40 45 84 45c39 0 85 -12 104 -48z" />
    <glyph glyph-name="acute" unicode="&#xb4;" 
d="M466 854l129 240c19 36 65 48 104 48c44 0 84 -19 84 -45c0 -10 -7 -20 -20 -33l-223 -224c-11 -11 -28 -15 -43 -15c-18 0 -34 8 -34 19c0 3 1 6 3 10z" />
    <glyph glyph-name="dotlessi" unicode="&#x131;" 
d="M150 680c0 28 22 50 50 50h300c28 0 50 -22 50 -50v-580h260c28 0 50 -22 50 -50s-22 -50 -50 -50h-620c-28 0 -50 22 -50 50s22 50 50 50h260v530h-250c-28 0 -50 22 -50 50z" />
    <glyph glyph-name="igrave" unicode="&#xec;" 
d="M150 680c0 28 22 50 50 50h300c28 0 50 -22 50 -50v-580h260c28 0 50 -22 50 -50s-22 -50 -50 -50h-620c-28 0 -50 22 -50 50s22 50 50 50h260v530h-250c-28 0 -50 22 -50 50zM363 1094l129 -240c2 -4 3 -7 3 -10c0 -11 -16 -19 -34 -19c-15 0 -32 4 -43 15l-223 224
c-13 13 -20 23 -20 33c0 26 40 45 84 45c39 0 85 -12 104 -48z" />
    <glyph glyph-name="k" unicode="k" 
d="M110 950c0 28 22 50 50 50h80c28 0 50 -22 50 -50v-570l250 250h-70c-28 0 -50 22 -50 50s22 50 50 50h360c28 0 50 -22 50 -50s-22 -50 -50 -50h-150l-189 -189l196 -341h153c28 0 50 -22 50 -50s-22 -50 -50 -50h-310c-28 0 -50 22 -50 50s22 50 50 50h42l-154 268
l-128 -128v-140h80c28 0 50 -22 50 -50s-22 -50 -50 -50h-250c-28 0 -50 22 -50 50s22 50 50 50h70v800h-30c-28 0 -50 22 -50 50z" />
    <glyph glyph-name="bracketright" unicode="]" 
d="M310 -150c0 28 22 50 50 50h190v1200h-190c-28 0 -50 22 -50 50s22 50 50 50h240c28 0 50 -22 50 -50v-1300c0 -28 -22 -50 -50 -50h-240c-28 0 -50 22 -50 50z" />
    <glyph glyph-name="bracketleft" unicode="[" 
d="M650 -150c0 -28 -22 -50 -50 -50h-240c-28 0 -50 22 -50 50v1300c0 28 22 50 50 50h240c28 0 50 -22 50 -50s-22 -50 -50 -50h-190v-1200h190c28 0 50 -22 50 -50z" />
    <glyph glyph-name="dieresis" unicode="&#xa8;" 
d="M240 970c0 50 40 90 90 90s90 -40 90 -90s-40 -90 -90 -90s-90 40 -90 90zM540 970c0 50 40 90 90 90s90 -40 90 -90s-40 -90 -90 -90s-90 40 -90 90z" />
    <glyph glyph-name="idieresis" unicode="&#xef;" 
d="M150 680c0 28 22 50 50 50h300c28 0 50 -22 50 -50v-580h260c28 0 50 -22 50 -50s-22 -50 -50 -50h-620c-28 0 -50 22 -50 50s22 50 50 50h260v530h-250c-28 0 -50 22 -50 50zM240 970c0 50 40 90 90 90s90 -40 90 -90s-40 -90 -90 -90s-90 40 -90 90zM540 970
c0 50 40 90 90 90s90 -40 90 -90s-40 -90 -90 -90s-90 40 -90 90z" />
    <glyph glyph-name="Idieresis" unicode="&#xcf;" 
d="M840 50c0 -28 -22 -50 -50 -50h-620c-28 0 -50 22 -50 50s22 50 50 50h260v800h-250c-28 0 -50 22 -50 50s22 50 50 50h600c28 0 50 -22 50 -50s-22 -50 -50 -50h-250v-800h260c28 0 50 -22 50 -50zM240 1240c0 50 40 90 90 90s90 -40 90 -90s-40 -90 -90 -90
s-90 40 -90 90zM540 1240c0 50 40 90 90 90s90 -40 90 -90s-40 -90 -90 -90s-90 40 -90 90z" />
    <glyph glyph-name="Iacute" unicode="&#xcd;" 
d="M840 50c0 -28 -22 -50 -50 -50h-620c-28 0 -50 22 -50 50s22 50 50 50h260v800h-250c-28 0 -50 22 -50 50s22 50 50 50h600c28 0 50 -22 50 -50s-22 -50 -50 -50h-250v-800h260c28 0 50 -22 50 -50zM453 1124l129 240c19 36 65 48 104 48c44 0 84 -19 84 -45
c0 -10 -7 -20 -20 -33l-223 -224c-11 -11 -28 -15 -43 -15c-18 0 -34 8 -34 19c0 3 1 6 3 10z" />
    <glyph glyph-name="Edieresis" unicode="&#xcb;" 
d="M839 393c28 0 50 -20 50 -49c0 -6 -1 -15 -2 -24l-28 -273c-3 -27 -23 -47 -50 -47h-691c-28 0 -50 22 -50 50s22 50 50 50h160v800h-160c-28 0 -50 22 -50 50s22 50 50 50h662c24 0 43 -17 49 -39l60 -244c1 -4 2 -9 2 -13c0 -25 -22 -49 -51 -49c-22 0 -42 15 -48 38
l-52 207h-362v-300h211v100c0 28 22 50 50 50s50 -22 50 -50v-320c0 -28 -22 -50 -50 -50s-50 22 -50 50v120h-211v-400h386l26 248c3 26 24 45 49 45zM240 1240c0 50 40 90 90 90s90 -40 90 -90s-40 -90 -90 -90s-90 40 -90 90zM540 1240c0 50 40 90 90 90s90 -40 90 -90
s-40 -90 -90 -90s-90 40 -90 90z" />
    <glyph glyph-name="Eacute" unicode="&#xc9;" 
d="M839 393c28 0 50 -20 50 -49c0 -6 -1 -15 -2 -24l-28 -273c-3 -27 -23 -47 -50 -47h-691c-28 0 -50 22 -50 50s22 50 50 50h160v800h-160c-28 0 -50 22 -50 50s22 50 50 50h662c24 0 43 -17 49 -39l60 -244c1 -4 2 -9 2 -13c0 -25 -22 -49 -51 -49c-22 0 -42 15 -48 38
l-52 207h-362v-300h211v100c0 28 22 50 50 50s50 -22 50 -50v-320c0 -28 -22 -50 -50 -50s-50 22 -50 50v120h-211v-400h386l26 248c3 26 24 45 49 45zM433 1124l129 240c19 36 65 48 104 48c44 0 84 -19 84 -45c0 -10 -7 -20 -20 -33l-223 -224c-11 -11 -28 -15 -43 -15
c-18 0 -34 8 -34 19c0 3 1 6 3 10z" />
    <glyph glyph-name="parenleft" unicode="(" 
d="M391 490c0 -272 121 -495 262 -634c9 -9 15 -22 15 -36c0 -28 -22 -50 -50 -50c-16 0 -31 8 -40 19c-155 156 -287 402 -287 701c0 300 134 548 290 703c9 10 22 17 37 17c28 0 50 -22 50 -50c0 -14 -6 -27 -15 -36c-141 -139 -262 -362 -262 -634z" />
    <glyph glyph-name="parenright" unicode=")" 
d="M668 490c0 -300 -132 -557 -292 -706c-9 -8 -20 -14 -35 -14c-28 0 -50 22 -50 50c0 15 6 27 15 36c140 139 262 363 262 634s-122 495 -262 634c-9 9 -15 21 -15 36c0 28 22 50 50 50c15 0 26 -6 35 -14c160 -149 292 -406 292 -706z" />
    <glyph glyph-name="bar" unicode="|" 
d="M430 -150v1300c0 28 22 50 50 50s50 -22 50 -50v-1300c0 -28 -22 -50 -50 -50s-50 22 -50 50z" />
    <glyph glyph-name="Thorn" unicode="&#xde;" 
d="M610 50c0 -28 -22 -50 -50 -50h-420c-28 0 -50 22 -50 50s22 50 50 50h140v800h-130c-28 0 -50 22 -50 50s22 50 50 50h400c28 0 50 -22 50 -50s-22 -50 -50 -50h-170v-110h220c144 0 260 -116 260 -260s-116 -260 -260 -260h-220v-170h180c28 0 50 -22 50 -50zM600 690
h-220v-320h220c83 0 150 72 150 160s-67 160 -150 160z" />
    <glyph glyph-name="divide" unicode="&#xf7;" 
d="M380 650c0 55 45 100 100 100s100 -45 100 -100s-45 -100 -100 -100s-100 45 -100 100zM380 180c0 55 45 100 100 100s100 -45 100 -100s-45 -100 -100 -100s-100 45 -100 100zM860 420c0 -28 -22 -50 -50 -50h-660c-28 0 -50 22 -50 50s22 50 50 50h660
c28 0 50 -22 50 -50z" />
    <glyph glyph-name="slash" unicode="/" 
d="M62 -125l750 1300c9 16 26 25 43 25c29 0 50 -25 50 -50c0 -8 -2 -17 -7 -25l-750 -1300c-9 -16 -26 -25 -43 -25c-29 0 -50 25 -50 50c0 8 2 17 7 25z" />
    <glyph glyph-name="z" unicode="z" 
d="M760 330c28 0 50 -22 50 -50v-230c0 -28 -22 -50 -50 -50h-580c-28 0 -50 22 -50 50c0 15 6 25 13 33l486 547h-359v-170c0 -28 -22 -50 -50 -50s-50 22 -50 50v220c0 28 22 50 50 50h520c28 0 50 -22 50 -50c0 -16 -6 -25 -13 -33l-486 -547h419v180c0 28 22 50 50 50z
" />
    <glyph glyph-name="zcaron" unicode="&#x17e;" 
d="M760 330c28 0 50 -22 50 -50v-230c0 -28 -22 -50 -50 -50h-580c-28 0 -50 22 -50 50c0 15 6 25 13 33l486 547h-359v-170c0 -28 -22 -50 -50 -50s-50 22 -50 50v220c0 28 22 50 50 50h520c28 0 50 -22 50 -50c0 -16 -6 -25 -13 -33l-486 -547h419v180c0 28 22 50 50 50z
M193 1121c10 11 24 17 37 17c12 0 24 -4 34 -13l216 -194l216 194c10 9 22 13 33 13c27 0 51 -23 51 -51c0 -13 -6 -27 -17 -37l-249 -223c-9 -8 -21 -13 -34 -13c-14 0 -25 5 -34 13l-249 223c-11 10 -17 24 -17 37c0 12 4 24 13 34z" />
    <glyph glyph-name="Oslash" unicode="&#xd8;" 
d="M105 500c0 293 144 530 375 530c79 0 148 -28 204 -77l28 48c9 16 26 26 43 26c29 0 50 -25 50 -50c0 -9 -2 -18 -7 -26l-44 -76c65 -96 101 -229 101 -375c0 -293 -170 -530 -375 -530c-79 0 -148 28 -205 76l-27 -47c-10 -17 -26 -26 -43 -26c-29 0 -50 25 -50 50
c0 9 2 18 7 26l44 76c-65 96 -101 228 -101 375zM215 500c0 -103 17 -196 51 -270l366 632c-41 43 -92 68 -152 68c-169 0 -265 -193 -265 -430zM745 500c0 102 -18 195 -52 269l-365 -632c40 -43 91 -67 152 -67c149 0 265 193 265 430z" />
    <glyph glyph-name="multiply" unicode="&#xd7;" 
d="M749 689c9 -10 14 -23 14 -36c0 -12 -5 -26 -14 -35l-198 -198l198 -198c10 -10 14 -23 14 -36c0 -27 -22 -49 -50 -49c-12 0 -26 4 -35 14l-198 198l-198 -198c-10 -10 -23 -14 -36 -14c-27 0 -49 22 -49 49c0 13 4 26 14 36l198 198l-198 198c-10 10 -14 23 -14 35
c0 13 4 26 14 36c10 9 23 14 35 14c13 0 26 -5 36 -14l198 -198l198 198c10 10 23 14 35 14c13 0 26 -5 36 -14z" />
    <glyph glyph-name="y" unicode="y" 
d="M543 164c56 155 112 314 166 466h-69c-28 0 -50 22 -50 50s22 50 50 50h190c28 0 50 -22 50 -50s-22 -50 -50 -50h-15l-238 -667c-56 -155 -119 -263 -295 -263c-100 0 -187 68 -187 183c0 45 26 127 105 127c50 0 90 -40 90 -90c0 -47 -36 -85 -83 -89
c16 -19 44 -31 75 -31c113 0 160 83 201 197c3 9 7 19 10 29l-256 604h-17c-28 0 -50 22 -50 50s22 50 50 50h210c28 0 50 -22 50 -50s-22 -50 -50 -50h-84z" />
    <glyph glyph-name="B" unicode="B" 
d="M600 1000c144 0 260 -116 260 -260c0 -81 -37 -153 -94 -200c86 -51 144 -144 144 -250c0 -160 -130 -290 -290 -290h-540c-28 0 -50 22 -50 50s22 50 50 50h210v800h-170c-28 0 -50 22 -50 50s22 50 50 50h480zM610 480h-220v-380h220c106 0 190 87 190 190
c0 105 -85 190 -190 190zM590 900h-200v-320h200c88 0 160 72 160 160s-72 160 -160 160z" />
    <glyph glyph-name="N" unicode="N" 
d="M110 0c-28 0 -50 22 -50 50s22 50 50 50h100v800h-100c-28 0 -50 22 -50 50s22 50 50 50h210c22 0 39 -14 47 -33l303 -704v637h-100c-28 0 -50 22 -50 50s22 50 50 50h310c28 0 50 -22 50 -50s-22 -50 -50 -50h-110v-880c0 -28 -22 -50 -50 -50c-21 0 -38 12 -46 30
l-364 846v-746h110c28 0 50 -22 50 -50s-22 -50 -50 -50h-310z" />
    <glyph glyph-name="C" unicode="C" 
d="M800 630c0 -28 -22 -50 -50 -50s-50 22 -50 50c0 165 -85 300 -235 300c-160 0 -260 -194 -260 -420c0 -236 98 -440 290 -440c134 0 235 103 235 250c0 28 22 50 50 50s50 -22 50 -50c0 -206 -144 -350 -335 -350c-258 0 -400 250 -400 540c0 280 150 520 370 520
c99 0 178 -39 235 -102v22c0 28 22 50 50 50s50 -22 50 -50v-320z" />
    <glyph glyph-name="D" unicode="D" 
d="M610 0h-510c-28 0 -50 22 -50 50s22 50 50 50h180v800h-170c-28 0 -50 22 -50 50s22 50 50 50h490c155 0 310 -132 310 -532c0 -279 -106 -468 -300 -468zM610 100c128 0 190 149 190 368c0 324 -95 432 -200 432h-220v-800h230z" />
    <glyph glyph-name="G" unicode="G" 
d="M630 20v47c-53 -61 -124 -97 -202 -97c-236 0 -328 232 -328 510c0 276 101 550 328 550c77 0 148 -38 202 -101v21c0 28 22 50 50 50s50 -22 50 -50v-310c0 -28 -22 -50 -50 -50s-50 22 -50 50c0 162 -92 290 -202 290c-157 0 -228 -224 -228 -450
c0 -224 64 -410 228 -410c115 0 202 128 202 300h-140c-28 0 -50 22 -50 50s22 50 50 50h360c28 0 50 -22 50 -50s-22 -50 -50 -50h-120v-350c0 -28 -22 -50 -50 -50s-50 22 -50 50z" />
    <glyph glyph-name="asciicircum" unicode="^" 
d="M177 555l260 450c9 16 26 25 43 25c18 0 37 -12 45 -28l258 -447c5 -8 7 -17 7 -25c0 -25 -21 -50 -50 -50c-17 0 -34 9 -43 25l-217 375l-217 -375c-9 -16 -26 -25 -43 -25c-29 0 -50 25 -50 50c0 8 2 17 7 25z" />
    <glyph glyph-name="backslash" unicode="\" 
d="M148 1175l750 -1300c5 -8 7 -17 7 -25c0 -25 -21 -50 -50 -50c-17 0 -34 9 -43 25l-750 1300c-5 8 -7 17 -7 25c0 25 21 50 50 50c17 0 34 -9 43 -25z" />
    <glyph glyph-name="mu" unicode="&#xb5;" 
d="M265 680v-440c0 -74 3 -172 93 -172c76 0 242 158 307 279v283h-80c-28 0 -50 22 -50 50s22 50 50 50h130c28 0 50 -22 50 -50v-580c0 -17 10 -30 30 -30s30 12 30 29v71c0 28 22 50 50 50s50 -22 50 -50v-71c0 -73 -42 -129 -130 -129c-86 0 -130 55 -130 130v71
c-70 -83 -196 -201 -311 -201c-33 0 -63 7 -89 21v-211c0 -28 -22 -50 -50 -50s-50 22 -50 50v850h-90c-28 0 -50 22 -50 50s22 50 50 50h140c28 0 50 -22 50 -50z" />
    <glyph glyph-name="semicolon" unicode=";" 
d="M360 -190c0 20 10 34 23 42c32 21 69 72 86 148c-50 6 -89 48 -89 100c0 55 45 100 100 100s100 -45 100 -100c0 -175 -76 -288 -143 -332c-6 -4 -15 -8 -27 -8c-28 0 -50 22 -50 50zM380 570c0 55 45 100 100 100s100 -45 100 -100s-45 -100 -100 -100s-100 45 -100 100
z" />
    <glyph glyph-name="comma" unicode="," 
d="M360 -190c0 20 10 34 23 42c32 21 69 72 86 148c-50 6 -89 48 -89 100c0 55 45 100 100 100s100 -45 100 -100c0 -175 -76 -288 -143 -332c-6 -4 -15 -8 -27 -8c-28 0 -50 22 -50 50z" />
    <glyph glyph-name="quoteright" unicode="&#x2019;" 
d="M360 640c0 20 10 34 23 42c32 21 69 72 86 148c-50 6 -89 48 -89 100c0 55 45 100 100 100s100 -45 100 -100c0 -175 -76 -288 -143 -332c-6 -4 -15 -8 -27 -8c-28 0 -50 22 -50 50z" />
    <glyph glyph-name="quoteleft" unicode="&#x2018;" 
d="M580 980c0 -20 -10 -34 -23 -42c-32 -21 -69 -72 -86 -148c50 -6 89 -48 89 -100c0 -55 -45 -100 -100 -100s-100 45 -100 100c0 175 76 288 143 332c6 4 15 8 27 8c28 0 50 -22 50 -50z" />
    <glyph glyph-name="quotedblright" unicode="&#x201d;" 
d="M520 640c0 20 10 34 23 42c32 21 69 72 86 148c-50 6 -89 48 -89 100c0 55 45 100 100 100s100 -45 100 -100c0 -175 -76 -288 -143 -332c-6 -4 -15 -8 -27 -8c-28 0 -50 22 -50 50zM220 640c0 20 10 34 23 42c32 21 69 72 86 148c-50 6 -89 48 -89 100
c0 55 45 100 100 100s100 -45 100 -100c0 -175 -76 -288 -143 -332c-6 -4 -15 -8 -27 -8c-28 0 -50 22 -50 50z" />
    <glyph glyph-name="quotedblleft" unicode="&#x201c;" 
d="M440 980c0 -20 -10 -34 -23 -42c-32 -21 -69 -72 -86 -148c50 -6 89 -48 89 -100c0 -55 -45 -100 -100 -100s-100 45 -100 100c0 175 76 288 143 332c6 4 15 8 27 8c28 0 50 -22 50 -50zM740 980c0 -20 -10 -34 -23 -42c-32 -21 -69 -72 -86 -148c50 -6 89 -48 89 -100
c0 -55 -45 -100 -100 -100s-100 45 -100 100c0 175 76 288 143 332c6 4 15 8 27 8c28 0 50 -22 50 -50z" />
    <glyph glyph-name="quotesinglbase" unicode="&#x201a;" 
d="M360 -190c0 20 10 34 23 42c32 21 69 72 86 148c-50 6 -89 48 -89 100c0 55 45 100 100 100s100 -45 100 -100c0 -175 -76 -288 -143 -332c-6 -4 -15 -8 -27 -8c-28 0 -50 22 -50 50z" />
    <glyph glyph-name="plusminus" unicode="&#xb1;" 
d="M860 620c0 -28 -22 -50 -50 -50h-280v-280c0 -28 -22 -50 -50 -50s-50 22 -50 50v280h-280c-28 0 -50 22 -50 50s22 50 50 50h280v280c0 28 22 50 50 50s50 -22 50 -50v-280h280c28 0 50 -22 50 -50zM860 120c0 -28 -22 -50 -50 -50h-660c-28 0 -50 22 -50 50
s22 50 50 50h660c28 0 50 -22 50 -50z" />
    <glyph glyph-name="brokenbar" unicode="&#xa6;" 
d="M430 -150v530c0 28 22 50 50 50s50 -22 50 -50v-530c0 -28 -22 -50 -50 -50s-50 22 -50 50zM430 620v530c0 28 22 50 50 50s50 -22 50 -50v-530c0 -28 -22 -50 -50 -50s-50 22 -50 50z" />
    <glyph glyph-name="cent" unicode="&#xa2;" 
d="M237 -2l54 150c-81 69 -139 180 -139 312c0 226 132 400 352 400c15 0 30 -1 45 -3l40 109c7 20 27 33 47 33c30 0 50 -25 50 -49c0 -6 -1 -12 -3 -18l-38 -104c100 -48 162 -143 162 -228c0 -50 -40 -90 -90 -90s-90 40 -90 90c0 35 20 66 49 80c-16 21 -38 40 -65 54
l-199 -546c25 -12 52 -18 80 -18c117 0 195 88 219 140c7 17 24 30 46 30c28 0 50 -22 50 -50c0 -58 -133 -220 -315 -220c-39 0 -78 8 -114 24l-47 -130c-7 -21 -27 -33 -47 -33c-30 0 -50 25 -50 49c0 6 1 12 3 18zM262 460c0 -83 26 -155 68 -206l184 506h-10
c-156 0 -242 -130 -242 -300z" />
    <glyph glyph-name="quotedblbase" unicode="&#x201e;" 
d="M460 -190c0 20 10 34 23 42c32 21 69 72 86 148c-50 6 -89 48 -89 100c0 55 45 100 100 100s100 -45 100 -100c0 -175 -76 -288 -143 -332c-6 -4 -15 -8 -27 -8c-28 0 -50 22 -50 50zM160 -190c0 20 10 34 23 42c32 21 69 72 86 148c-50 6 -89 48 -89 100
c0 55 45 100 100 100s100 -45 100 -100c0 -175 -76 -288 -143 -332c-6 -4 -15 -8 -27 -8c-28 0 -50 22 -50 50z" />
    <glyph glyph-name="dagger" unicode="&#x2020;" 
d="M830 730h-300v-880c0 -28 -22 -50 -50 -50s-50 22 -50 50v880h-300c-28 0 -50 22 -50 50s22 50 50 50h300v320c0 28 22 50 50 50s50 -22 50 -50v-320h300c28 0 50 -22 50 -50s-22 -50 -50 -50z" />
    <glyph glyph-name="daggerdbl" unicode="&#x2021;" 
d="M830 730h-300v-460h300c28 0 50 -22 50 -50s-22 -50 -50 -50h-300v-320c0 -28 -22 -50 -50 -50s-50 22 -50 50v320h-300c-28 0 -50 22 -50 50s22 50 50 50h300v460h-300c-28 0 -50 22 -50 50s22 50 50 50h300v320c0 28 22 50 50 50s50 -22 50 -50v-320h300
c28 0 50 -22 50 -50s-22 -50 -50 -50z" />
    <glyph glyph-name="oslash" unicode="&#xf8;" 
d="M135 365c0 218 155 395 345 395c74 0 143 -28 200 -74l38 46c10 12 24 18 38 18c28 0 51 -24 51 -51c0 -11 -4 -22 -12 -32l-46 -55c47 -68 76 -154 76 -247c0 -218 -155 -395 -345 -395c-77 0 -148 29 -205 77l-33 -39c-10 -12 -24 -18 -39 -18c-27 0 -50 23 -50 50
c0 12 4 23 12 33l42 50c-45 67 -72 151 -72 242zM715 365c0 59 -14 115 -38 161l-336 -400c39 -35 87 -56 139 -56c130 0 235 132 235 295zM245 365c0 -57 13 -110 35 -155l333 397c-38 33 -84 53 -133 53c-130 0 -235 -132 -235 -295z" />
    <glyph glyph-name="quotesingle" unicode="'" 
d="M480 480c-30 0 -47 24 -49 40c0 0 -30 235 -50 395c-1 9 -1 10 -1 15c0 55 45 100 100 100s100 -45 100 -100c0 -5 0 -6 -1 -15c-20 -160 -50 -395 -50 -395c-2 -16 -19 -40 -49 -40z" />
    <glyph glyph-name="quotedbl" unicode="&#x22;" 
d="M630 480c-30 0 -47 24 -49 40c0 0 -30 235 -50 395c-1 9 -1 10 -1 15c0 55 45 100 100 100s100 -45 100 -100c0 -5 0 -6 -1 -15c-20 -160 -50 -395 -50 -395c-2 -16 -19 -40 -49 -40zM330 480c-30 0 -47 24 -49 40c0 0 -30 235 -50 395c-1 9 -1 10 -1 15
c0 55 45 100 100 100s100 -45 100 -100c0 -5 0 -6 -1 -15c-20 -160 -50 -395 -50 -395c-2 -16 -19 -40 -49 -40z" />
    <glyph glyph-name="less" unicode="&#x3c;" 
d="M746 805c17 0 34 -9 43 -25c5 -8 7 -17 7 -25c0 -17 -9 -34 -25 -43l-498 -287l498 -287c16 -9 25 -26 25 -43c0 -8 -2 -17 -7 -25c-9 -16 -26 -25 -43 -25c-8 0 -17 2 -25 7l-572 330c-13 7 -25 23 -25 43c0 17 9 34 25 43l572 330c8 5 17 7 25 7z" />
    <glyph glyph-name="greater" unicode="&#x3e;" 
d="M214 805c8 0 17 -2 25 -7l572 -330c16 -9 25 -26 25 -43c0 -20 -12 -36 -25 -43l-572 -330c-8 -5 -17 -7 -25 -7c-17 0 -34 9 -43 25c-5 8 -7 17 -7 25c0 17 9 34 25 43l498 287l-498 287c-16 9 -25 26 -25 43c0 8 2 17 7 25c9 16 26 25 43 25z" />
    <glyph glyph-name="asciitilde" unicode="~" 
d="M742 610c0 28 22 50 50 50s50 -22 50 -50c0 -189 -122 -250 -200 -250c-69 0 -137 20 -205 134c-44 73 -81 86 -119 86c-39 0 -100 -38 -100 -150c0 -28 -22 -50 -50 -50s-50 22 -50 50c0 188 121 250 200 250c69 0 137 -20 205 -134c44 -73 81 -86 119 -86
c39 0 100 37 100 150z" />
    <glyph glyph-name="bullet" unicode="&#x2022;" 
d="M280 560c0 110 90 200 200 200s200 -90 200 -200s-90 -200 -200 -200s-200 90 -200 200z" />
    <glyph glyph-name="ccedilla" unicode="&#xe7;" 
d="M617 500c0 35 20 66 49 80c-34 45 -96 80 -172 80c-156 0 -242 -130 -242 -300c0 -169 110 -290 230 -290c119 0 198 92 219 140c7 17 24 30 46 30c28 0 50 -22 50 -50c0 -9 -2 -16 -4 -20c-32 -70 -133 -185 -283 -198v-6c56 -8 142 -36 142 -131
c0 -84 -101 -135 -195 -135c-77 0 -136 22 -166 34c-17 7 -31 24 -31 46c0 28 22 50 50 50c7 0 13 -1 19 -4c39 -18 83 -26 128 -26c44 0 85 13 85 35s-43 35 -82 35c-28 0 -50 22 -50 50v60c-143 37 -268 185 -268 380c0 226 132 400 352 400c180 0 303 -140 303 -260
c0 -50 -40 -90 -90 -90s-90 40 -90 90z" />
    <glyph glyph-name="cedilla" unicode="&#xb8;" 
d="M420 21h100v-55c56 -8 142 -36 142 -131c0 -84 -101 -135 -195 -135c-77 0 -136 22 -166 34c-17 7 -31 24 -31 46c0 28 22 50 50 50c7 0 13 -1 19 -4c39 -18 83 -26 128 -26c44 0 85 13 85 35s-43 35 -82 35c-28 0 -50 22 -50 50v101z" />
    <glyph glyph-name="A" unicode="A" 
d="M480 1030c22 0 43 -14 49 -39l211 -891h130c28 0 50 -22 50 -50s-22 -50 -50 -50h-320c-28 0 -50 22 -50 50s22 50 50 50h86l-33 140h-279l-39 -140h75c28 0 50 -22 50 -50s-22 -50 -50 -50h-270c-28 0 -50 22 -50 50s22 50 50 50h92l249 891c7 25 26 39 49 39zM476 778
c-41 -147 -82 -292 -123 -438h226z" />
    <glyph glyph-name="yacute" unicode="&#xfd;" 
d="M543 164c56 155 112 314 166 466h-69c-28 0 -50 22 -50 50s22 50 50 50h190c28 0 50 -22 50 -50s-22 -50 -50 -50h-15l-238 -667c-56 -155 -119 -263 -295 -263c-100 0 -187 68 -187 183c0 45 26 127 105 127c50 0 90 -40 90 -90c0 -47 -36 -85 -83 -89
c16 -19 44 -31 75 -31c113 0 160 83 201 197c3 9 7 19 10 29l-256 604h-17c-28 0 -50 22 -50 50s22 50 50 50h210c28 0 50 -22 50 -50s-22 -50 -50 -50h-84zM501 854l129 240c19 36 65 48 104 48c44 0 84 -19 84 -45c0 -10 -7 -20 -20 -33l-223 -224
c-11 -11 -28 -15 -43 -15c-18 0 -34 8 -34 19c0 3 1 6 3 10z" />
    <glyph glyph-name="Ccedilla" unicode="&#xc7;" 
d="M700 630c0 166 -84 300 -234 300c-160 0 -261 -194 -261 -420c0 -236 98 -440 290 -440c135 0 235 104 235 250c0 28 22 50 50 50s50 -22 50 -50c0 -193 -127 -333 -304 -348v-6c56 -8 142 -36 142 -131c0 -84 -101 -135 -195 -135c-77 0 -136 22 -166 34
c-17 7 -31 24 -31 46c0 28 22 50 50 50c7 0 13 -1 19 -4c39 -18 83 -26 128 -26c44 0 85 13 85 35s-43 35 -82 35c-28 0 -50 22 -50 50v57c-214 40 -331 270 -331 533c0 280 151 520 371 520c99 0 178 -39 234 -102v22c0 28 22 50 50 50s50 -22 50 -50v-320
c0 -28 -22 -50 -50 -50s-50 22 -50 50z" />
    <glyph glyph-name="Agrave" unicode="&#xc0;" 
d="M480 1030c22 0 43 -14 49 -39l211 -891h130c28 0 50 -22 50 -50s-22 -50 -50 -50h-320c-28 0 -50 22 -50 50s22 50 50 50h86l-33 140h-279l-39 -140h75c28 0 50 -22 50 -50s-22 -50 -50 -50h-270c-28 0 -50 22 -50 50s22 50 50 50h92l249 891c7 25 26 39 49 39zM476 778
c-41 -147 -82 -292 -123 -438h226zM374 1364l129 -240c2 -4 3 -7 3 -10c0 -11 -16 -19 -34 -19c-15 0 -32 4 -43 15l-223 224c-13 13 -20 23 -20 33c0 26 40 45 84 45c39 0 85 -12 104 -48z" />
    <glyph glyph-name="Acircumflex" unicode="&#xc2;" 
d="M480 1030c22 0 43 -14 49 -39l211 -891h130c28 0 50 -22 50 -50s-22 -50 -50 -50h-320c-28 0 -50 22 -50 50s22 50 50 50h86l-33 140h-279l-39 -140h75c28 0 50 -22 50 -50s-22 -50 -50 -50h-270c-28 0 -50 22 -50 50s22 50 50 50h92l249 891c7 25 26 39 49 39zM476 778
c-41 -147 -82 -292 -123 -438h226zM193 1117c-9 10 -13 22 -13 33c0 14 6 28 17 38l249 223c9 8 20 13 34 13c13 0 25 -5 34 -13l249 -223c11 -10 17 -24 17 -38c0 -27 -24 -50 -51 -50c-11 0 -23 4 -33 13l-216 194l-216 -194c-10 -9 -22 -13 -34 -13c-13 0 -27 6 -37 17z
" />
    <glyph glyph-name="V" unicode="V" 
d="M40 950c0 28 22 50 50 50h280c28 0 50 -22 50 -50s-22 -50 -50 -50h-85l197 -700l210 700h-92c-28 0 -50 22 -50 50s22 50 50 50h270c28 0 50 -22 50 -50s-22 -50 -50 -50h-73l-269 -894c-6 -21 -25 -36 -48 -36s-42 15 -48 36l-250 894h-92c-28 0 -50 22 -50 50z" />
    <glyph glyph-name="Eth" unicode="&#xd0;" 
d="M610 0h-510c-28 0 -50 22 -50 50s22 50 50 50h180v375h-170c-28 0 -50 22 -50 50s22 50 50 50h170v325h-170c-28 0 -50 22 -50 50s22 50 50 50h490c155 0 310 -132 310 -532c0 -279 -106 -468 -300 -468zM610 525c0 -28 -22 -50 -50 -50h-180v-375h230
c128 0 190 149 190 368c0 324 -95 432 -200 432h-220v-325h180c28 0 50 -22 50 -50z" />
    <glyph glyph-name="tilde" unicode="&#x2dc;" 
d="M740 1060c0 -152 -69 -200 -141 -200c-79 0 -134 76 -159 110c-16 22 -52 70 -79 70c-21 0 -41 -24 -41 -100c0 -28 -22 -50 -50 -50s-50 22 -50 50c0 152 68 200 141 200c78 0 135 -76 159 -110c15 -22 52 -70 79 -70c21 0 41 25 41 100c0 28 22 50 50 50s50 -22 50 -50
z" />
    <glyph glyph-name="Atilde" unicode="&#xc3;" 
d="M480 1030c22 0 43 -14 49 -39l211 -891h130c28 0 50 -22 50 -50s-22 -50 -50 -50h-320c-28 0 -50 22 -50 50s22 50 50 50h86l-33 140h-279l-39 -140h75c28 0 50 -22 50 -50s-22 -50 -50 -50h-270c-28 0 -50 22 -50 50s22 50 50 50h92l249 891c7 25 26 39 49 39zM476 778
c-41 -147 -82 -292 -123 -438h226zM740 1330c0 -152 -69 -200 -141 -200c-79 0 -134 76 -159 110c-16 22 -52 70 -79 70c-21 0 -41 -24 -41 -100c0 -28 -22 -50 -50 -50s-50 22 -50 50c0 152 68 200 141 200c78 0 135 -76 159 -110c15 -22 52 -70 79 -70c21 0 41 25 41 100
c0 28 22 50 50 50s50 -22 50 -50z" />
    <glyph glyph-name="ordfeminine" unicode="&#xaa;" 
d="M191 978c0 84 81 150 242 150c158 0 238 -67 238 -158v-345c0 -9 5 -15 15 -15s15 6 15 14v54c0 25 20 45 45 45s45 -20 45 -45v-54c0 -58 -33 -104 -105 -104c-54 0 -87 26 -100 66c-55 -35 -133 -66 -219 -66c-124 0 -198 74 -198 182c0 131 93 163 208 178
c99 13 199 49 204 87v3c0 39 -50 68 -148 68c-47 0 -83 -6 -108 -15c10 -12 16 -28 16 -45c0 -41 -34 -75 -75 -75s-75 34 -75 75zM367 610c104 0 188 53 214 83v156c-52 -30 -120 -51 -192 -59c-75 -9 -130 -24 -130 -88c0 -54 40 -92 108 -92z" />
    <glyph glyph-name="Otilde" unicode="&#xd5;" 
d="M105 500c0 293 144 530 375 530s375 -237 375 -530s-170 -530 -375 -530c-231 0 -375 237 -375 530zM215 500c0 -237 96 -430 265 -430c149 0 265 193 265 430s-96 430 -265 430s-265 -193 -265 -430zM740 1330c0 -152 -69 -200 -141 -200c-79 0 -134 76 -159 110
c-16 22 -52 70 -79 70c-21 0 -41 -24 -41 -100c0 -28 -22 -50 -50 -50s-50 22 -50 50c0 152 68 200 141 200c78 0 135 -76 159 -110c15 -22 52 -70 79 -70c21 0 41 25 41 100c0 28 22 50 50 50s50 -22 50 -50z" />
    <glyph glyph-name="ntilde" unicode="&#xf1;" 
d="M50 680c0 28 22 50 50 50h170c28 0 50 -22 50 -50v-117c65 83 177 197 290 197s200 -84 200 -204v-456h90c28 0 50 -22 50 -50s-22 -50 -50 -50h-280c-28 0 -50 22 -50 50s22 50 50 50h90v355c0 106 -1 207 -104 207c-76 0 -225 -157 -286 -277v-285h80
c28 0 50 -22 50 -50s-22 -50 -50 -50h-300c-28 0 -50 22 -50 50s22 50 50 50h120v530h-120c-28 0 -50 22 -50 50zM740 1060c0 -152 -69 -200 -141 -200c-79 0 -134 76 -159 110c-16 22 -52 70 -79 70c-21 0 -41 -24 -41 -100c0 -28 -22 -50 -50 -50s-50 22 -50 50
c0 152 68 200 141 200c78 0 135 -76 159 -110c15 -22 52 -70 79 -70c21 0 41 25 41 100c0 28 22 50 50 50s50 -22 50 -50z" />
    <glyph glyph-name="m" unicode="m" 
d="M320 50c0 -28 -22 -50 -50 -50h-150c-28 0 -50 22 -50 50s22 50 50 50h30v530h-30c-28 0 -50 22 -50 50s22 50 50 50h80c23 0 43 -16 48 -38c44 37 97 68 147 68c59 0 115 -32 141 -88c48 44 110 88 169 88c80 0 155 -58 155 -155v-505h10c28 0 50 -22 50 -50
s-22 -50 -50 -50h-140c-28 0 -50 22 -50 50s22 50 50 50h30v505c0 35 -27 55 -55 55c-48 0 -118 -73 -155 -113v-447h20c28 0 50 -22 50 -50s-22 -50 -50 -50h-150c-28 0 -50 22 -50 50s22 50 50 50h30v505c0 35 -27 55 -55 55c-44 0 -107 -61 -145 -103v-457h20
c28 0 50 -22 50 -50z" />
    <glyph glyph-name="asterisk" unicode="*" 
d="M150 630c0 28 22 50 50 50h193l-96 167c-5 8 -7 17 -7 26c0 17 9 33 25 43c8 5 16 7 25 7c17 0 34 -10 43 -26l97 -168l97 168c9 16 26 26 43 26c8 0 17 -2 25 -7c16 -9 25 -26 25 -43c0 -9 -2 -18 -7 -26l-97 -167h194c28 0 50 -22 50 -50s-22 -50 -50 -50h-194l97 -167
c5 -8 7 -17 7 -26c0 -25 -21 -50 -50 -50c-17 0 -33 9 -43 26l-97 167l-97 -167c-10 -17 -26 -26 -43 -26c-29 0 -50 25 -50 50c0 9 2 18 7 26l96 167h-193c-28 0 -50 22 -50 50z" />
    <glyph glyph-name="s" unicode="s" 
d="M205 280c28 0 50 -22 50 -50c0 -80 114 -160 242 -160c124 0 203 41 203 120c0 94 -86 129 -212 137c-166 10 -338 54 -338 213c0 135 139 220 285 220c99 0 187 -41 250 -98v18c0 28 22 50 50 50s50 -22 50 -50v-210c0 -28 -22 -50 -50 -50s-50 22 -50 50
c0 84 -109 190 -250 190c-94 0 -175 -47 -175 -120c0 -84 111 -107 232 -113c190 -10 318 -68 318 -237c0 -145 -129 -220 -313 -220c-92 0 -179 33 -242 84v-4c0 -28 -22 -50 -50 -50s-50 22 -50 50v180c0 28 22 50 50 50z" />
    <glyph glyph-name="ordmasculine" unicode="&#xba;" 
d="M212 824c0 168 109 304 268 304s268 -136 268 -304s-109 -304 -268 -304s-268 136 -268 304zM312 824c0 -118 68 -214 168 -214s168 96 168 214s-75 214 -168 214c-100 0 -168 -96 -168 -214z" />
    <glyph glyph-name="onesuperior" unicode="&#xb9;" 
d="M262 971c-5 8 -8 18 -8 27c0 16 8 32 24 42l196 122c7 4 16 7 26 7c28 0 50 -22 50 -50v-499h120c28 0 50 -22 50 -50s-22 -50 -50 -50h-380c-28 0 -50 22 -50 50s22 50 50 50h160v409l-119 -74c-9 -5 -18 -8 -27 -8c-17 0 -32 8 -42 24z" />
    <glyph glyph-name="ring" unicode="&#x2da;" 
d="M265 1070c0 116 96 210 215 210s215 -94 215 -210s-96 -210 -215 -210s-215 94 -215 210zM375 1070c0 -61 47 -110 105 -110s105 49 105 110s-47 110 -105 110s-105 -49 -105 -110z" />
    <glyph glyph-name="Aring" unicode="&#xc5;" 
d="M265 1150c0 116 96 210 215 210s215 -94 215 -210c0 -96 -66 -177 -156 -202l201 -848h130c28 0 50 -22 50 -50s-22 -50 -50 -50h-320c-28 0 -50 22 -50 50s22 50 50 50h86l-33 140h-279l-39 -140h75c28 0 50 -22 50 -50s-22 -50 -50 -50h-270c-28 0 -50 22 -50 50
s22 50 50 50h92l237 848c-89 26 -154 106 -154 202zM476 778c-41 -147 -82 -292 -123 -438h226zM375 1150c0 -61 47 -110 105 -110s105 49 105 110s-47 110 -105 110s-105 -49 -105 -110z" />
    <glyph glyph-name="Y" unicode="Y" 
d="M492 515l172 385h-64c-28 0 -50 22 -50 50s22 50 50 50h270c28 0 50 -22 50 -50s-22 -50 -50 -50h-95l-225 -504v-296h200c28 0 50 -22 50 -50s-22 -50 -50 -50h-500c-28 0 -50 22 -50 50s22 50 50 50h200v275l-256 525h-104c-28 0 -50 22 -50 50s22 50 50 50h270
c28 0 50 -22 50 -50s-22 -50 -50 -50h-55z" />
    <glyph glyph-name="t" unicode="t" 
d="M730 680c0 -28 -22 -50 -50 -50h-270v-446c0 -58 23 -114 93 -114s127 45 127 190c0 28 22 50 50 50s50 -22 50 -50c0 -221 -103 -290 -227 -290c-146 0 -193 104 -193 214v446h-180c-28 0 -50 22 -50 50s22 50 50 50h180v220c0 28 22 50 50 50s50 -22 50 -50v-220h270
c28 0 50 -22 50 -50z" />
    <glyph glyph-name="AE" unicode="&#xc6;" 
d="M372 50c0 28 22 50 50 50h30v140h-212l-40 -140h35c28 0 50 -22 50 -50s-22 -50 -50 -50h-170c-28 0 -50 22 -50 50s22 50 50 50h32l223 800h-28c-28 0 -50 22 -50 50s22 50 50 50h511c24 0 43 -17 49 -39l60 -244c1 -4 2 -9 2 -13c0 -25 -22 -49 -51 -49
c-22 0 -42 15 -48 38l-52 207h-211v-300h101v100c0 28 22 50 50 50s50 -22 50 -50v-320c0 -28 -22 -50 -50 -50s-50 22 -50 50v120h-101v-400h235l26 248c3 26 24 45 49 45c28 0 50 -20 50 -49c0 -6 -1 -15 -2 -24l-28 -273c-3 -27 -23 -47 -50 -47h-410
c-28 0 -50 22 -50 50zM425 900l-157 -560h184v560h-27z" />
    <glyph glyph-name="Yacute" unicode="&#xdd;" 
d="M492 515l172 385h-64c-28 0 -50 22 -50 50s22 50 50 50h270c28 0 50 -22 50 -50s-22 -50 -50 -50h-95l-225 -504v-296h200c28 0 50 -22 50 -50s-22 -50 -50 -50h-500c-28 0 -50 22 -50 50s22 50 50 50h200v275l-256 525h-104c-28 0 -50 22 -50 50s22 50 50 50h270
c28 0 50 -22 50 -50s-22 -50 -50 -50h-55zM455 1124l129 240c19 36 65 48 104 48c44 0 84 -19 84 -45c0 -10 -7 -20 -20 -33l-223 -224c-11 -11 -28 -15 -43 -15c-18 0 -34 8 -34 19c0 3 1 6 3 10z" />
    <glyph glyph-name="scaron" unicode="&#x161;" 
d="M205 280c28 0 50 -22 50 -50c0 -80 114 -160 242 -160c124 0 203 41 203 120c0 94 -86 129 -212 137c-166 10 -338 54 -338 213c0 135 139 220 285 220c99 0 187 -41 250 -98v18c0 28 22 50 50 50s50 -22 50 -50v-210c0 -28 -22 -50 -50 -50s-50 22 -50 50
c0 84 -109 190 -250 190c-94 0 -175 -47 -175 -120c0 -84 111 -107 232 -113c190 -10 318 -68 318 -237c0 -145 -129 -220 -313 -220c-92 0 -179 33 -242 84v-4c0 -28 -22 -50 -50 -50s-50 22 -50 50v180c0 28 22 50 50 50zM193 1121c10 11 24 17 37 17c12 0 24 -4 34 -13
l216 -194l216 194c10 9 22 13 33 13c27 0 51 -23 51 -51c0 -13 -6 -27 -17 -37l-249 -223c-9 -8 -21 -13 -34 -13c-14 0 -25 5 -34 13l-249 223c-11 10 -17 24 -17 37c0 12 4 24 13 34z" />
    <glyph glyph-name="germandbls" unicode="&#xdf;" 
d="M483 673c0 15 7 36 31 46c32 13 106 48 106 108c0 56 -48 103 -150 103c-130 0 -165 -57 -165 -131v-699h53c28 0 50 -22 50 -50s-22 -50 -50 -50h-260c-28 0 -50 22 -50 50s22 50 50 50h107v699c0 130 57 231 265 231c170 0 250 -93 250 -203c0 -60 -63 -137 -63 -137
c105 -44 241 -144 241 -360c0 -238 -144 -330 -323 -330c-50 0 -90 40 -90 90s40 90 90 90c42 0 77 -29 87 -68c80 26 136 93 136 218c0 228 -218 283 -276 294c-9 2 -39 14 -39 49z" />
    <glyph glyph-name="onehalf" unicode="&#xbd;" 
d="M512 330c153 0 272 -76 272 -212c0 -129 -121 -194 -285 -216c-60 -8 -110 -26 -143 -53c5 1 11 1 16 1c77 0 122 -30 164 -58c24 -16 46 -31 70 -31c41 0 75 51 79 96c2 20 21 43 50 43c28 0 50 -22 50 -50c0 -40 -56 -189 -179 -189c-102 0 -139 89 -234 89
c-22 0 -52 -15 -57 -46c-4 -27 -25 -43 -50 -43c-55 0 -55 69 -55 97c0 139 108 224 277 244c119 14 197 50 197 116c0 72 -75 112 -172 112c-76 0 -125 -13 -155 -33c23 -16 38 -43 38 -73c0 -50 -40 -90 -90 -90s-90 40 -90 90c0 107 75 206 297 206zM455 1036
c-59 -31 -140 -54 -173 -54c-28 0 -50 22 -50 50c0 25 18 46 43 50c69 10 135 40 206 81c7 4 15 6 24 6c28 0 50 -22 50 -50v-499h120c28 0 50 -22 50 -50s-22 -50 -50 -50h-380c-28 0 -50 22 -50 50s22 50 50 50h160v416zM85 470h790c28 0 50 -22 50 -50s-22 -50 -50 -50
h-790c-28 0 -50 22 -50 50s22 50 50 50z" />
    <glyph glyph-name="twosuperior" unicode="&#xb2;" 
d="M482 1190c153 0 272 -76 272 -212c0 -129 -121 -194 -285 -216c-60 -8 -110 -26 -143 -53c5 1 11 1 16 1c77 0 122 -30 164 -58c24 -16 46 -31 70 -31c41 0 75 51 79 96c2 20 21 43 50 43c28 0 50 -22 50 -50c0 -40 -56 -189 -179 -189c-102 0 -139 89 -234 89
c-22 0 -52 -15 -57 -46c-4 -27 -25 -43 -50 -43c-55 0 -55 69 -55 97c0 139 108 224 277 244c119 14 197 50 197 116c0 72 -75 112 -172 112c-76 0 -125 -13 -155 -33c23 -16 38 -43 38 -73c0 -50 -40 -90 -90 -90s-90 40 -90 90c0 107 75 206 297 206z" />
    <glyph glyph-name="onequarter" unicode="&#xbc;" 
d="M495 -330v110h-330c-28 0 -50 22 -50 50c0 14 5 25 13 34l380 432c9 10 22 16 37 16c28 0 50 -22 50 -50v-382h120c28 0 50 -22 50 -50s-22 -50 -50 -50h-120v-110c0 -28 -22 -50 -50 -50s-50 22 -50 50zM925 420c0 -28 -22 -50 -50 -50h-790c-28 0 -50 22 -50 50
s22 50 50 50h790c28 0 50 -22 50 -50zM495 128c-73 -82 -127 -142 -220 -248h220v248zM455 1036c-59 -31 -140 -54 -173 -54c-28 0 -50 22 -50 50c0 25 18 46 43 50c69 10 135 40 206 81c7 4 15 6 24 6c28 0 50 -22 50 -50v-499h120c28 0 50 -22 50 -50s-22 -50 -50 -50
h-380c-28 0 -50 22 -50 50s22 50 50 50h160v416z" />
    <glyph glyph-name="x" unicode="x" 
d="M940 50c0 -28 -22 -50 -50 -50h-310c-28 0 -50 22 -50 50s22 50 50 50h22l-127 188l-147 -188h32c28 0 50 -22 50 -50s-22 -50 -50 -50h-290c-28 0 -50 22 -50 50s22 50 50 50h130l216 276l-171 254h-115c-28 0 -50 22 -50 50s22 50 50 50h250c28 0 50 -22 50 -50
s-22 -50 -50 -50h-16l116 -172l135 172h-15c-28 0 -50 22 -50 50s22 50 50 50h240c28 0 50 -22 50 -50s-22 -50 -50 -50h-97l-204 -260l182 -270h169c28 0 50 -22 50 -50z" />
    <glyph glyph-name="guilsinglright" unicode="&#x203a;" 
d="M745 370c0 -14 -7 -29 -18 -38l-330 -277c-9 -7 -20 -11 -32 -11c-27 0 -50 22 -50 50c0 14 6 28 18 38l284 238l-284 238c-12 10 -18 24 -18 38c0 28 23 50 50 50c12 0 23 -4 32 -11l330 -277c11 -9 18 -24 18 -38z" />
    <glyph glyph-name="yen" unicode="&#xa5;" 
d="M870 340c0 -28 -22 -50 -50 -50h-270v-190h200c28 0 50 -22 50 -50s-22 -50 -50 -50h-500c-28 0 -50 22 -50 50s22 50 50 50h200v190h-290c-28 0 -50 22 -50 50s22 50 50 50h282l-97 200h-185c-28 0 -50 22 -50 50s22 50 50 50h136l-102 210h-104c-28 0 -50 22 -50 50
s22 50 50 50h270c28 0 50 -22 50 -50s-22 -50 -50 -50h-55l187 -385l172 385h-64c-28 0 -50 22 -50 50s22 50 50 50h270c28 0 50 -22 50 -50s-22 -50 -50 -50h-95l-94 -210h139c28 0 50 -22 50 -50s-22 -50 -50 -50h-184l-86 -195v-5h270c28 0 50 -22 50 -50z" />
    <glyph glyph-name="braceleft" unicode="{" 
d="M610 1220c28 0 50 -22 50 -50s-22 -50 -50 -50c-78 0 -94 -69 -94 -157c0 -41 3 -87 7 -132c4 -46 7 -93 7 -138c0 -80 -11 -149 -49 -193c38 -44 49 -113 49 -193c0 -44 -3 -91 -7 -138c-4 -46 -7 -92 -7 -132c0 -88 16 -157 94 -157c28 0 50 -22 50 -50
s-22 -50 -50 -50c-160 0 -194 113 -194 257c0 46 3 94 7 140s7 91 7 130c0 81 -14 143 -80 143c-28 0 -50 22 -50 50s22 50 50 50c66 0 80 62 80 143c0 38 -3 83 -7 130c-4 46 -7 94 -7 140c0 144 34 257 194 257z" />
    <glyph glyph-name="braceright" unicode="}" 
d="M350 1220c160 0 194 -113 194 -257c0 -46 -3 -94 -7 -140c-4 -47 -7 -92 -7 -130c0 -81 14 -143 80 -143c28 0 50 -22 50 -50s-22 -50 -50 -50c-66 0 -80 -62 -80 -143c0 -39 3 -84 7 -130s7 -94 7 -140c0 -144 -34 -257 -194 -257c-28 0 -50 22 -50 50s22 50 50 50
c78 0 94 69 94 157c0 40 -3 86 -7 132c-4 47 -7 94 -7 138c0 80 11 149 49 193c-38 44 -49 113 -49 193c0 45 3 92 7 138c4 45 7 91 7 132c0 88 -16 157 -94 157c-28 0 -50 22 -50 50s22 50 50 50z" />
    <glyph glyph-name="OE" unicode="&#x152;" 
d="M353 0c-194 0 -300 189 -300 468c0 400 155 532 310 532h432c24 0 44 -17 49 -39l60 -244c1 -4 2 -9 2 -13c0 -26 -23 -49 -51 -49c-22 0 -43 15 -48 38l-50 207h-234v-300h101v100c0 28 22 50 50 50s50 -22 50 -50v-320c0 -28 -22 -50 -50 -50s-50 22 -50 50v120h-101
v-400h256l26 248c3 26 24 45 49 45c32 0 50 -24 50 -49c0 -7 -1 -15 -1 -15l-29 -283c-3 -27 -23 -46 -50 -46h-471zM363 900c-105 0 -200 -108 -200 -432c0 -219 62 -368 190 -368h70v800h-60z" />
    <glyph glyph-name="question" unicode="?" 
d="M476 1030c243 0 336 -153 336 -270c0 -128 -95 -175 -183 -221c-61 -32 -122 -64 -122 -129v-120c0 -28 -22 -50 -50 -50s-50 22 -50 50v120c0 124 87 171 176 217c62 32 119 64 119 133c0 73 -57 170 -226 170c-124 0 -191 -44 -214 -97c42 -7 75 -44 75 -89
c0 -50 -40 -90 -90 -90c-32 0 -61 16 -78 45c-12 22 -17 50 -17 87c0 123 96 244 324 244zM457 150c50 0 90 -40 90 -90s-40 -90 -90 -90s-90 40 -90 90s40 90 90 90z" />
    <glyph glyph-name="questiondown" unicode="&#xbf;" 
d="M507 490c28 0 50 -22 50 -50v-120c0 -124 -87 -171 -176 -217c-62 -32 -119 -64 -119 -133c0 -73 57 -170 226 -170c124 0 191 44 214 97c-42 7 -75 44 -75 89c0 50 40 90 90 90c32 0 61 -16 78 -45c12 -22 17 -50 17 -87c0 -123 -96 -244 -324 -244
c-243 0 -336 153 -336 270c0 128 95 175 183 221c61 32 122 64 122 129v120c0 28 22 50 50 50zM507 760c50 0 90 -40 90 -90s-40 -90 -90 -90s-90 40 -90 90s40 90 90 90z" />
    <glyph glyph-name="dollar" unicode="$" 
d="M610 800c0 32 17 60 43 76c-30 26 -76 44 -128 51v-326c152 -34 305 -99 305 -321c0 -180 -149 -293 -305 -308v-122c0 -28 -22 -50 -50 -50s-50 22 -50 50v124c-193 26 -295 165 -295 296c0 50 40 90 90 90s90 -40 90 -90c0 -39 -24 -71 -57 -84c30 -52 88 -96 172 -111
v444c-146 30 -285 72 -285 259c0 154 130 235 285 249v123c0 28 22 50 50 50s50 -22 50 -50v-123c119 -9 265 -82 265 -227c0 -50 -40 -90 -90 -90s-90 40 -90 90zM720 280c0 127 -96 185 -195 216v-424c104 14 195 89 195 208zM250 778c0 -104 79 -136 175 -157v306
c-99 -12 -175 -61 -175 -149z" />
    <glyph glyph-name="r" unicode="r" 
d="M416 634c67 69 160 126 274 126c108 0 194 -66 194 -164c0 -77 -43 -116 -95 -116c-50 0 -90 40 -90 90c0 34 18 63 46 79c-16 7 -34 11 -55 11c-136 0 -233 -113 -274 -195v-365h190c28 0 50 -22 50 -50s-22 -50 -50 -50h-480c-28 0 -50 22 -50 50s22 50 50 50h190v530
h-190c-28 0 -50 22 -50 50s22 50 50 50h240c28 0 50 -22 50 -50v-46z" />
    <glyph glyph-name="v" unicode="v" 
d="M920 680c0 -28 -22 -50 -50 -50h-80l-260 -627c-8 -20 -26 -33 -47 -33c-22 0 -39 14 -47 33l-266 627h-80c-28 0 -50 22 -50 50s22 50 50 50h280c28 0 50 -22 50 -50s-22 -50 -50 -50h-92l204 -481l200 481h-92c-28 0 -50 22 -50 50s22 50 50 50h280c28 0 50 -22 50 -50
z" />
    <glyph glyph-name="w" unicode="w" 
d="M650 220l106 410h-16c-28 0 -50 22 -50 50s22 50 50 50h140c28 0 50 -22 50 -50s-22 -50 -50 -50h-22l-159 -621c-6 -22 -23 -39 -49 -39s-43 17 -49 39l-121 469l-121 -469c-6 -22 -24 -39 -49 -39c-26 0 -43 17 -49 39l-160 621h-21c-28 0 -50 22 -50 50s22 50 50 50
h140c28 0 50 -22 50 -50s-22 -50 -50 -50h-16l106 -410l105 410h-5c-28 0 -50 22 -50 50s22 50 50 50h140c28 0 50 -22 50 -50s-22 -50 -50 -50h-6c35 -134 70 -274 106 -410z" />
    <glyph glyph-name="W" unicode="W" 
d="M940 950c0 -28 -22 -50 -50 -50h-20l-201 -890c-5 -23 -24 -40 -49 -40c-27 0 -46 21 -49 40l-91 641l-131 -641c-4 -22 -24 -40 -49 -40c-26 0 -45 18 -49 40l-163 890h-18c-28 0 -50 22 -50 50s22 50 50 50h140c28 0 50 -22 50 -50s-22 -50 -50 -50h-20l113 -614
l125 614h-8c-28 0 -50 22 -50 50s22 50 50 50h140c28 0 50 -22 50 -50s-22 -50 -50 -50h-12l84 -598l135 598h-17c-28 0 -50 22 -50 50s22 50 50 50h140c28 0 50 -22 50 -50z" />
    <glyph glyph-name="eth" unicode="&#xf0;" 
d="M802 1037c5 -8 7 -17 7 -25c0 -17 -9 -34 -25 -43l-103 -59c97 -126 163 -301 163 -518c0 -289 -187 -422 -355 -422c-196 0 -355 161 -355 360s159 360 355 360c82 0 158 -28 218 -75c-25 96 -67 177 -116 242l-119 -68c-8 -5 -17 -7 -25 -7c-25 0 -50 21 -50 50
c0 17 9 34 25 43l100 57c-75 67 -161 102 -242 102c-30 0 -58 -8 -81 -8c-28 0 -50 22 -50 50c0 25 17 41 38 48c30 10 64 10 93 10c111 0 233 -52 334 -149l120 70c8 5 17 7 25 7c17 0 34 -9 43 -25zM244 330c0 -144 110 -260 245 -260c113 0 230 89 243 285
c-12 132 -116 235 -243 235c-135 0 -245 -116 -245 -260z" />
    <glyph glyph-name="uni0025" unicode="%" 
d="M764 1091c10 14 25 22 41 22c29 0 50 -25 50 -50c0 -8 -2 -17 -7 -25l-650 -1126c-9 -16 -26 -25 -43 -25c-29 0 -50 25 -50 50c0 8 2 17 7 25l557 965c-29 -6 -60 -9 -90 -9c-40 0 -81 5 -122 14c12 -37 18 -79 18 -122c0 -166 -89 -300 -230 -300s-230 134 -230 300
s89 300 230 300c40 0 77 -12 108 -31c65 -38 147 -61 226 -61c75 0 147 20 185 73zM485 210c0 166 89 300 230 300s230 -134 230 -300s-89 -300 -230 -300s-230 134 -230 300zM125 810c0 -110 41 -200 120 -200s120 90 120 200s-41 200 -120 200s-120 -90 -120 -200z
M595 210c0 -110 41 -200 120 -200s120 90 120 200s-41 200 -120 200s-120 -90 -120 -200z" />
    <glyph glyph-name="perthousand" unicode="&#x2030;" 
d="M180 160c0 138 59 250 165 250s165 -112 165 -250s-59 -250 -165 -250s-165 112 -165 250zM290 160c0 -83 21 -150 55 -150s55 67 55 150s-21 150 -55 150s-55 -67 -55 -150zM580 160c0 138 59 250 165 250s165 -112 165 -250s-59 -250 -165 -250s-165 112 -165 250z
M690 160c0 -83 21 -150 55 -150s55 67 55 150s-21 150 -55 150s-55 -67 -55 -150zM60 860c0 138 59 250 165 250s165 -112 165 -250s-59 -250 -165 -250s-165 112 -165 250zM170 860c0 -83 21 -150 55 -150s55 67 55 150s-21 150 -55 150s-55 -67 -55 -150zM844 837
c5 -8 7 -17 7 -25c0 -17 -9 -34 -25 -43l-632 -365c-8 -5 -17 -7 -25 -7c-26 0 -50 21 -50 51c0 17 9 34 25 43l632 365c8 5 16 7 25 7c17 0 34 -9 43 -26z" />
    <glyph glyph-name="at" unicode="@" 
d="M483 795c50 0 93 -16 127 -44c11 14 29 24 48 24c28 0 51 -23 49 -55l-25 -369c-1 -20 9 -36 35 -36c61 0 98 100 98 235c0 242 -125 380 -335 380c-201 0 -345 -178 -345 -420c0 -260 143 -440 385 -440c122 0 233 45 302 91c5 3 14 9 28 9c28 0 50 -22 50 -50
c0 -69 -226 -150 -380 -150c-304 0 -495 220 -495 540c0 300 196 520 455 520c272 0 445 -179 445 -480c0 -180 -76 -335 -214 -335c-53 0 -97 21 -118 58c-40 -37 -91 -58 -149 -58c-133 0 -212 109 -212 260c0 181 102 320 251 320zM476 695c-84 0 -134 -93 -134 -217
c0 -96 35 -163 108 -163c86 0 134 94 134 219c0 95 -36 161 -108 161z" />
    <glyph glyph-name="a" unicode="a" 
d="M790 170c0 28 22 50 50 50s50 -22 50 -50v-71c0 -73 -49 -129 -135 -129c-71 0 -118 38 -131 95c-74 -48 -180 -95 -282 -95c-173 0 -267 110 -267 232c0 145 115 209 270 228c147 18 275 69 275 130c0 58 -66 100 -202 100c-69 0 -121 -10 -155 -25
c17 -17 27 -40 27 -65c0 -50 -40 -90 -90 -90s-90 40 -90 90c0 109 101 190 308 190c204 0 302 -84 302 -200v-460c0 -17 13 -30 35 -30s35 12 35 29v71zM342 70c119 0 242 75 278 116v233c-69 -43 -164 -76 -263 -89c-101 -14 -172 -50 -172 -128c0 -70 50 -132 157 -132z
" />
    <glyph glyph-name="latin_alpha" unicode="&#x251;" 
d="M393 760c78 0 149 -36 199 -89v9c0 28 22 50 50 50s50 -22 50 -50v-580c0 -17 20 -30 45 -30s45 13 45 30v50c0 28 22 50 50 50s50 -22 50 -50v-50c0 -72 -65 -130 -145 -130c-66 0 -122 39 -140 93c-51 -58 -120 -93 -205 -93c-190 0 -295 177 -295 395s115 395 296 395
zM393 660c-121 0 -186 -132 -186 -295s55 -295 185 -295s200 132 200 295s-73 295 -199 295z" />
    <glyph glyph-name="script_l" unicode="&#x2113;" 
d="M513 1030c114 0 172 -81 172 -211c0 -156 -127 -321 -270 -451v-100c0 -145 25 -198 102 -198c71 0 108 51 108 150c0 28 22 50 50 50s50 -22 50 -50c0 -164 -70 -250 -208 -250c-152 0 -202 79 -202 298v16c-21 -16 -41 -31 -61 -45c-8 -6 -18 -9 -29 -9
c-28 0 -50 22 -50 50c0 17 8 32 21 41c39 27 79 58 119 91v318c0 199 59 300 198 300zM513 930c-69 0 -98 -67 -98 -200v-225c96 100 170 211 170 314c0 68 -24 111 -72 111z" />
    <glyph glyph-name="numbersign" unicode="#" 
d="M371 -94l117 324h-213l-130 -358c-8 -21 -27 -33 -47 -33c-31 0 -50 25 -50 49c0 6 1 12 3 18l117 324h-78c-28 0 -50 22 -50 50s22 50 50 50h115l109 300h-154c-28 0 -50 22 -50 50s22 50 50 50h190l145 398c8 20 27 33 47 33c30 0 50 -25 50 -49c0 -6 -1 -12 -3 -18
l-132 -364h213l145 398c8 20 27 33 47 33c30 0 50 -25 50 -49c0 -6 -1 -12 -3 -18l-132 -364h93c28 0 50 -22 50 -50s-22 -50 -50 -50h-130l-109 -300h169c28 0 50 -22 50 -50s-22 -50 -50 -50h-205l-130 -358c-8 -21 -27 -33 -47 -33c-31 0 -50 25 -50 49c0 6 1 12 3 18z
M420 630l-109 -300h214l109 300h-214z" />
    <glyph glyph-name="exclam" unicode="!" 
d="M480 1030c50 0 90 -40 90 -90c0 -134 -40 -250 -40 -560c0 -28 -22 -50 -50 -50s-50 22 -50 50c0 310 -40 426 -40 560c0 50 40 90 90 90zM480 150c50 0 90 -40 90 -90s-40 -90 -90 -90s-90 40 -90 90s40 90 90 90z" />
    <glyph glyph-name="ampersand" unicode="&#x26;" 
d="M821 110c0 28 22 50 50 50s50 -22 50 -50c0 -80 -55 -140 -145 -140c-88 0 -165 56 -229 133c-52 -77 -125 -133 -241 -133c-149 0 -267 112 -267 269c0 175 118 266 244 345c-33 83 -54 159 -54 230c0 120 93 216 208 216c112 0 202 -85 202 -191
c0 -142 -112 -223 -229 -296c22 -46 46 -95 72 -146c15 -30 31 -62 49 -94l21 60c46 136 86 257 208 257c66 0 129 -44 129 -110c0 -50 -40 -90 -90 -90c-42 0 -77 28 -87 66c-25 -36 -46 -96 -66 -155c-15 -43 -30 -89 -48 -132c53 -73 114 -129 178 -129c28 0 45 18 45 40
zM306 70c85 0 138 51 177 121c-35 54 -66 111 -91 162c-24 47 -47 93 -68 137c-97 -62 -185 -137 -185 -251c0 -99 74 -169 167 -169zM329 814c0 -52 16 -111 42 -178c90 56 168 116 168 203c0 50 -46 91 -102 91c-59 0 -108 -52 -108 -116z" />
    <glyph glyph-name="threequarters" unicode="&#xbe;" 
d="M925 420c0 -28 -22 -50 -50 -50h-790c-28 0 -50 22 -50 50s22 50 50 50h790c28 0 50 -22 50 -50zM157 657c0 28 22 50 50 50c14 0 26 -6 35 -14c38 -37 109 -83 229 -83c104 0 189 52 189 115c0 75 -63 120 -154 120c-33 0 -70 -7 -111 -18c-5 -1 -9 -1 -13 -1
c-26 0 -49 23 -49 49c0 14 6 29 18 39l186 156h-242c-28 0 -50 22 -50 50s22 50 50 50h380c25 0 49 -20 49 -50c0 -17 -8 -30 -17 -38l-166 -139c130 -12 219 -92 219 -218c0 -119 -129 -215 -289 -215c-107 0 -214 30 -299 111c-9 8 -15 22 -15 36zM495 -330v110h-330
c-28 0 -50 22 -50 50c0 14 5 25 13 34l380 432c9 10 22 16 37 16c28 0 50 -22 50 -50v-382h120c28 0 50 -22 50 -50s-22 -50 -50 -50h-120v-110c0 -28 -22 -50 -50 -50s-50 22 -50 50zM495 128c-73 -82 -127 -142 -220 -248h220v248z" />
    <glyph glyph-name="copyright" unicode="&#xa9;" 
d="M75 500c0 248 164 450 405 450s405 -202 405 -450s-164 -450 -405 -450s-405 202 -405 450zM175 500c0 -199 126 -360 305 -360s305 161 305 360s-126 360 -305 360s-305 -161 -305 -360zM576 397c8 14 23 23 40 23c25 0 45 -20 45 -45c0 -8 -2 -16 -6 -23
c-37 -67 -97 -112 -175 -112c-126 0 -210 116 -210 260s84 260 210 260c78 0 137 -45 175 -112c4 -7 6 -15 6 -23c0 -25 -20 -45 -45 -45c-19 0 -34 11 -42 27c-19 39 -54 63 -94 63c-70 0 -120 -76 -120 -170s50 -170 120 -170c41 0 75 27 96 67z" />
    <glyph glyph-name="registered" unicode="&#xae;" 
d="M75 500c0 248 164 450 405 450s405 -202 405 -450s-164 -450 -405 -450s-405 202 -405 450zM175 500c0 -199 126 -360 305 -360s305 161 305 360s-126 360 -305 360s-305 -161 -305 -360zM305 315v445h215c83 0 150 -67 150 -150c0 -63 -39 -117 -93 -139l75 -131
c5 -7 8 -16 8 -25c0 -25 -20 -45 -45 -45c-18 0 -33 9 -40 24l-95 166h-85v-145c0 -25 -20 -45 -45 -45s-45 20 -45 45zM570 610c0 31 -25 57 -55 60h-120v-120h115c33 0 60 27 60 60z" />
    <glyph glyph-name="X" unicode="X" 
d="M50 950c0 28 22 50 50 50h260c28 0 50 -22 50 -50s-22 -50 -50 -50h-78l198 -302l197 302h-67c-28 0 -50 22 -50 50s22 50 50 50h250c28 0 50 -22 50 -50s-22 -50 -50 -50h-63l-258 -393l268 -407h63c28 0 50 -22 50 -50s-22 -50 -50 -50h-270c-28 0 -50 22 -50 50
s22 50 50 50h87l-207 316l-208 -316h98c28 0 50 -22 50 -50s-22 -50 -50 -50h-280c-28 0 -50 22 -50 50s22 50 50 50h63l267 407l-257 393h-63c-28 0 -50 22 -50 50z" />
    <glyph glyph-name="trademark" unicode="&#x2122;" 
d="M920 905v-450c0 -25 -20 -45 -45 -45c-26 0 -45 20 -45 45v233l-108 -250c-7 -17 -23 -28 -42 -28c-20 0 -35 12 -42 28l-108 250v-233c0 -25 -19 -45 -45 -45c-25 0 -45 20 -45 45v450c0 25 20 45 45 45c20 0 34 -14 42 -31l153 -351l153 351c8 17 22 31 42 31
c25 0 45 -20 45 -45zM390 905c0 -25 -20 -45 -45 -45h-95v-405c0 -25 -20 -45 -45 -45s-45 20 -45 45v405h-95c-25 0 -45 20 -45 45s20 45 45 45h280c25 0 45 -20 45 -45z" />
    <glyph glyph-name="ae" unicode="&#xe6;" 
d="M870 350h-340c4 -175 62 -280 166 -280c63 0 111 45 111 99c0 28 22 50 50 50s50 -22 50 -50c0 -111 -94 -199 -211 -199c-85 0 -150 35 -194 100c-44 -61 -114 -100 -214 -100c-197 0 -253 121 -253 216c0 174 123 213 239 248c78 24 156 47 156 136
c0 56 -53 90 -133 90c-35 0 -62 -6 -81 -16c24 -16 39 -43 39 -74c0 -50 -40 -90 -90 -90s-90 40 -90 90c0 107 58 190 222 190c98 0 173 -36 209 -98c45 64 106 98 173 98c163 0 241 -135 241 -360c0 -28 -22 -50 -50 -50zM449 194c-13 51 -19 110 -19 176v17
c-38 -22 -82 -35 -127 -49c-81 -25 -158 -50 -158 -149c0 -51 26 -119 143 -119c91 0 141 52 161 124zM679 660c-70 0 -128 -75 -145 -210h284c-9 132 -54 210 -139 210z" />
    <glyph glyph-name="exclamdown" unicode="&#xa1;" 
d="M480 -300c-50 0 -90 40 -90 90c0 134 40 250 40 560c0 28 22 50 50 50s50 -22 50 -50c0 -310 40 -426 40 -560c0 -50 -40 -90 -90 -90zM480 580c-50 0 -90 40 -90 90s40 90 90 90s90 -40 90 -90s-40 -90 -90 -90z" />
    <glyph glyph-name="threesuperior" unicode="&#xb3;" 
d="M527 845c-33 0 -70 -7 -111 -18c-5 -1 -9 -1 -13 -1c-26 0 -49 23 -49 49c0 14 6 29 18 39l186 156h-242c-28 0 -50 22 -50 50s22 50 50 50h380c25 0 49 -20 49 -50c0 -17 -8 -30 -17 -38l-166 -139c130 -12 219 -92 219 -218c0 -119 -129 -215 -289 -215
c-107 0 -214 30 -299 111c-9 8 -15 22 -15 36c0 28 22 50 50 50c14 0 26 -6 35 -14c38 -37 109 -83 229 -83c104 0 189 52 189 115c0 75 -63 120 -154 120z" />
    <glyph glyph-name="periodcentered" unicode="&#xb7;" 
d="M380 470c0 55 45 100 100 100s100 -45 100 -100s-45 -100 -100 -100s-100 45 -100 100z" />
    <glyph glyph-name="oe" unicode="&#x153;" 
d="M479 623c47 89 120 137 200 137c163 0 241 -135 241 -360c0 -28 -22 -50 -50 -50h-335c3 -175 57 -280 161 -280c63 0 111 45 111 99c0 28 22 50 50 50s50 -22 50 -50c0 -110 -92 -199 -211 -199c-99 0 -172 48 -218 134c-43 -82 -111 -134 -196 -134
c-157 0 -247 177 -247 395s90 395 247 395c86 0 153 -54 197 -137zM287 660c-90 0 -142 -132 -142 -295s52 -295 142 -295s138 132 138 295s-48 295 -138 295zM679 660c-70 0 -125 -75 -140 -210h279c-9 132 -54 210 -139 210z" />
    <glyph glyph-name="macron" unicode="&#xaf;" 
d="M760 950c0 -28 -22 -50 -50 -50h-460c-28 0 -50 22 -50 50s22 50 50 50h460c28 0 50 -22 50 -50z" />
    <glyph glyph-name="nbspace" unicode="&#xa0;" 
 />
    <glyph glyph-name="Omega_symbol" unicode="&#x2126;" 
d="M845 0h-245c-28 0 -50 22 -50 50c0 140 61 216 126 294c59 72 114 148 114 286c0 180 -124 300 -310 300s-310 -120 -310 -300c0 -138 55 -214 114 -286c65 -78 126 -154 126 -294c0 -28 -22 -50 -50 -50h-245c-24 0 -44 16 -49 38l-32 137c-1 4 -2 11 -2 15
c0 28 22 50 50 50c24 0 43 -15 49 -40l24 -100h150c-13 75 -55 127 -99 181c-70 86 -146 175 -146 349c0 240 174 400 420 400s420 -160 420 -400c0 -174 -76 -263 -146 -349c-44 -54 -86 -106 -99 -181h150l24 100c6 25 25 40 49 40c28 0 50 -22 50 -50c0 -4 -1 -11 -2 -15
l-32 -137c-5 -22 -25 -38 -49 -38z" />
    <glyph glyph-name="sterling" unicode="&#xa3;" 
d="M680 780c0 35 20 66 50 80c-28 37 -75 70 -150 70c-129 0 -177 -88 -177 -193c0 -64 9 -125 17 -187h140c28 0 50 -22 50 -50s-22 -50 -50 -50h-126c6 -48 11 -96 11 -143c0 -34 -3 -65 -10 -96c60 -61 147 -141 234 -141c89 0 161 71 161 150c0 28 22 50 50 50
s50 -22 50 -50c0 -132 -118 -250 -261 -250c-119 0 -200 66 -271 136c-44 -83 -116 -136 -201 -136c-103 0 -177 76 -177 198c0 88 64 182 180 182c53 0 101 -24 145 -57v14c0 47 -4 96 -10 143h-95c-28 0 -50 22 -50 50s22 50 50 50h80c-8 62 -17 124 -17 179
c0 161 69 301 277 301c206 0 280 -168 280 -250c0 -50 -40 -90 -90 -90s-90 40 -90 90zM197 70c55 0 101 44 126 111c-41 39 -81 69 -123 69c-52 0 -80 -42 -80 -82c0 -60 32 -98 77 -98z" />
    <glyph glyph-name="lira" unicode="&#x20a4;" 
d="M610 670c0 -28 -22 -50 -50 -50h-149c5 -34 9 -67 14 -100h135c28 0 50 -22 50 -50s-22 -50 -50 -50h-122c4 -38 7 -76 7 -113c0 -34 -3 -65 -10 -96c61 -62 147 -141 234 -141s161 68 161 150c0 28 22 50 50 50s50 -22 50 -50c0 -131 -116 -250 -261 -250
c-119 0 -200 66 -271 136c-44 -83 -116 -136 -201 -136c-103 0 -177 76 -177 198c0 88 64 182 180 182c53 0 101 -24 145 -57v14c0 37 -3 75 -7 113h-98c-28 0 -50 22 -50 50s22 50 50 50h85c-4 32 -11 68 -14 100h-71c-28 0 -50 22 -50 50s22 50 50 50h63v9
c0 161 69 301 277 301c206 0 280 -168 280 -250c0 -50 -40 -90 -90 -90s-90 40 -90 90c0 35 20 66 50 80c-28 37 -75 70 -150 70c-134 0 -177 -92 -177 -199v-11h157c28 0 50 -22 50 -50zM197 70c55 0 101 44 126 111c-41 39 -81 69 -123 69c-52 0 -80 -42 -80 -82
c0 -60 32 -98 77 -98z" />
    <glyph glyph-name="currency" unicode="&#xa4;" 
d="M135 420c0 77 25 148 68 205l-92 93c-10 10 -14 23 -14 35c0 13 4 26 14 36c10 9 23 14 35 14c13 0 26 -5 36 -14l92 -93c58 43 129 69 206 69s148 -26 205 -69l93 93c10 10 23 14 35 14c13 0 26 -5 36 -14c9 -10 14 -23 14 -36c0 -12 -5 -26 -14 -35l-93 -93
c43 -57 69 -128 69 -205s-26 -148 -69 -206l93 -92c10 -10 14 -23 14 -36c0 -27 -22 -49 -50 -49c-12 0 -26 4 -35 14l-93 92c-57 -43 -128 -68 -205 -68s-148 25 -206 68l-92 -92c-10 -10 -23 -14 -36 -14c-27 0 -49 22 -49 49c0 13 4 26 14 36l92 92
c-43 58 -68 129 -68 206zM245 420c0 -135 105 -245 235 -245s235 110 235 245s-105 245 -235 245s-235 -110 -235 -245z" />
    <glyph glyph-name="logicalnot" unicode="&#xac;" 
d="M102 680c0 28 22 50 50 50h636c28 0 50 -22 50 -50v-285c0 -28 -22 -50 -50 -50s-50 22 -50 50v235h-586c-28 0 -50 22 -50 50z" />
    <glyph glyph-name="uni00AD" unicode="&#xad;" 
d="M730 950c0 -28 -22 -50 -50 -50h-400c-28 0 -50 22 -50 50s22 50 50 50h400c28 0 50 -22 50 -50z" />
    <glyph glyph-name="section" unicode="&#xa7;" 
d="M762 840c0 -50 -40 -90 -90 -90s-90 40 -90 90c0 26 11 50 29 66c-29 15 -67 24 -111 24c-98 0 -163 -56 -163 -130c0 -98 97 -173 203 -249c136 -98 278 -201 278 -378c0 -71 -41 -155 -92 -190c4 -17 6 -34 6 -53c0 -132 -117 -230 -273 -230c-152 0 -262 85 -262 190
c0 50 40 90 90 90s90 -40 90 -90c0 -26 -11 -50 -29 -66c28 -15 67 -24 111 -24c98 0 163 56 163 130c0 98 -97 173 -203 249c-136 98 -277 201 -277 378c0 71 39 154 91 190c-4 17 -6 34 -6 53c0 132 117 230 273 230c152 0 262 -85 262 -190zM482 471
c-78 56 -157 113 -206 182c-18 -22 -34 -60 -34 -96c0 -126 121 -216 235 -298c78 -56 156 -114 205 -183c19 22 36 61 36 97c0 126 -122 215 -236 298z" />
    <glyph glyph-name="paragraph" unicode="&#xb6;" 
d="M580 50v850h-150v-850c0 -28 -22 -50 -50 -50s-50 22 -50 50v550h-30c-110 0 -200 90 -200 200s90 200 200 200h480c28 0 50 -22 50 -50s-22 -50 -50 -50h-100v-850c0 -28 -22 -50 -50 -50s-50 22 -50 50z" />
    <glyph glyph-name="agrave" unicode="&#xe0;" 
d="M790 170c0 28 22 50 50 50s50 -22 50 -50v-71c0 -73 -49 -129 -135 -129c-71 0 -118 38 -131 95c-74 -48 -180 -95 -282 -95c-173 0 -267 110 -267 232c0 145 115 209 270 228c147 18 275 69 275 130c0 58 -66 100 -202 100c-69 0 -121 -10 -155 -25
c17 -17 27 -40 27 -65c0 -50 -40 -90 -90 -90s-90 40 -90 90c0 109 101 190 308 190c204 0 302 -84 302 -200v-460c0 -17 13 -30 35 -30s35 12 35 29v71zM342 70c119 0 242 75 278 116v233c-69 -43 -164 -76 -263 -89c-101 -14 -172 -50 -172 -128c0 -70 50 -132 157 -132z
M335 1094l129 -240c2 -4 3 -7 3 -10c0 -11 -16 -19 -34 -19c-15 0 -32 4 -43 15l-223 224c-13 13 -20 23 -20 33c0 26 40 45 84 45c39 0 85 -12 104 -48z" />
    <glyph glyph-name="aacute" unicode="&#xe1;" 
d="M790 170c0 28 22 50 50 50s50 -22 50 -50v-71c0 -73 -49 -129 -135 -129c-71 0 -118 38 -131 95c-74 -48 -180 -95 -282 -95c-173 0 -267 110 -267 232c0 145 115 209 270 228c147 18 275 69 275 130c0 58 -66 100 -202 100c-69 0 -121 -10 -155 -25
c17 -17 27 -40 27 -65c0 -50 -40 -90 -90 -90s-90 40 -90 90c0 109 101 190 308 190c204 0 302 -84 302 -200v-460c0 -17 13 -30 35 -30s35 12 35 29v71zM342 70c119 0 242 75 278 116v233c-69 -43 -164 -76 -263 -89c-101 -14 -172 -50 -172 -128c0 -70 50 -132 157 -132z
M398 854l129 240c19 36 65 48 104 48c44 0 84 -19 84 -45c0 -10 -7 -20 -20 -33l-223 -224c-11 -11 -28 -15 -43 -15c-18 0 -34 8 -34 19c0 3 1 6 3 10z" />
    <glyph glyph-name="acircumflex" unicode="&#xe2;" 
d="M790 170c0 28 22 50 50 50s50 -22 50 -50v-71c0 -73 -49 -129 -135 -129c-71 0 -118 38 -131 95c-74 -48 -180 -95 -282 -95c-173 0 -267 110 -267 232c0 145 115 209 270 228c147 18 275 69 275 130c0 58 -66 100 -202 100c-69 0 -121 -10 -155 -25
c17 -17 27 -40 27 -65c0 -50 -40 -90 -90 -90s-90 40 -90 90c0 109 101 190 308 190c204 0 302 -84 302 -200v-460c0 -17 13 -30 35 -30s35 12 35 29v71zM342 70c119 0 242 75 278 116v233c-69 -43 -164 -76 -263 -89c-101 -14 -172 -50 -172 -128c0 -70 50 -132 157 -132z
M141 847c-9 10 -13 22 -13 33c0 14 6 28 17 38l249 223c9 8 20 13 34 13c13 0 25 -5 34 -13l249 -223c11 -10 17 -24 17 -38c0 -27 -24 -50 -51 -50c-11 0 -23 4 -33 13l-216 194l-216 -194c-10 -9 -22 -13 -34 -13c-13 0 -27 6 -37 17z" />
    <glyph glyph-name="atilde" unicode="&#xe3;" 
d="M790 170c0 28 22 50 50 50s50 -22 50 -50v-71c0 -73 -49 -129 -135 -129c-71 0 -118 38 -131 95c-74 -48 -180 -95 -282 -95c-173 0 -267 110 -267 232c0 145 115 209 270 228c147 18 275 69 275 130c0 58 -66 100 -202 100c-69 0 -121 -10 -155 -25
c17 -17 27 -40 27 -65c0 -50 -40 -90 -90 -90s-90 40 -90 90c0 109 101 190 308 190c204 0 302 -84 302 -200v-460c0 -17 13 -30 35 -30s35 12 35 29v71zM342 70c119 0 242 75 278 116v233c-69 -43 -164 -76 -263 -89c-101 -14 -172 -50 -172 -128c0 -70 50 -132 157 -132z
M675 1060c0 -152 -69 -200 -141 -200c-79 0 -134 76 -159 110c-16 22 -52 70 -79 70c-21 0 -41 -24 -41 -100c0 -28 -22 -50 -50 -50s-50 22 -50 50c0 152 68 200 141 200c78 0 135 -76 159 -110c15 -22 52 -70 79 -70c21 0 41 25 41 100c0 28 22 50 50 50s50 -22 50 -50z
" />
    <glyph glyph-name="adieresis" unicode="&#xe4;" 
d="M790 170c0 28 22 50 50 50s50 -22 50 -50v-71c0 -73 -49 -129 -135 -129c-71 0 -118 38 -131 95c-74 -48 -180 -95 -282 -95c-173 0 -267 110 -267 232c0 145 115 209 270 228c147 18 275 69 275 130c0 58 -66 100 -202 100c-69 0 -121 -10 -155 -25
c17 -17 27 -40 27 -65c0 -50 -40 -90 -90 -90s-90 40 -90 90c0 109 101 190 308 190c204 0 302 -84 302 -200v-460c0 -17 13 -30 35 -30s35 12 35 29v71zM342 70c119 0 242 75 278 116v233c-69 -43 -164 -76 -263 -89c-101 -14 -172 -50 -172 -128c0 -70 50 -132 157 -132z
M183 970c0 50 40 90 90 90s90 -40 90 -90s-40 -90 -90 -90s-90 40 -90 90zM483 970c0 50 40 90 90 90s90 -40 90 -90s-40 -90 -90 -90s-90 40 -90 90z" />
    <glyph glyph-name="aring" unicode="&#xe5;" 
d="M790 170c0 28 22 50 50 50s50 -22 50 -50v-71c0 -73 -49 -129 -135 -129c-71 0 -118 38 -131 95c-74 -48 -180 -95 -282 -95c-173 0 -267 110 -267 232c0 145 115 209 270 228c147 18 275 69 275 130c0 58 -66 100 -202 100c-69 0 -121 -10 -155 -25
c17 -17 27 -40 27 -65c0 -50 -40 -90 -90 -90s-90 40 -90 90c0 109 101 190 308 190c204 0 302 -84 302 -200v-460c0 -17 13 -30 35 -30s35 12 35 29v71zM342 70c119 0 242 75 278 116v233c-69 -43 -164 -76 -263 -89c-101 -14 -172 -50 -172 -128c0 -70 50 -132 157 -132z
M204 1070c0 116 96 210 215 210s215 -94 215 -210s-96 -210 -215 -210s-215 94 -215 210zM314 1070c0 -61 47 -110 105 -110s105 49 105 110s-47 110 -105 110s-105 -49 -105 -110z" />
    <glyph glyph-name="egrave" unicode="&#xe8;" 
d="M769 350h-518c6 -156 109 -280 235 -280c78 0 152 46 194 120c8 17 25 29 46 29c28 0 50 -22 50 -50c0 -10 -3 -19 -8 -27c-62 -103 -164 -172 -282 -172c-190 0 -345 177 -345 395s155 395 345 395c179 0 317 -159 333 -360c0 -28 -22 -50 -50 -50zM486 660
c-107 0 -196 -89 -225 -210h441c-27 122 -110 210 -216 210zM410 1094l129 -240c2 -4 3 -7 3 -10c0 -11 -16 -19 -34 -19c-15 0 -32 4 -43 15l-223 224c-13 13 -20 23 -20 33c0 26 40 45 84 45c39 0 85 -12 104 -48z" />
    <glyph glyph-name="eacute" unicode="&#xe9;" 
d="M769 350h-518c6 -156 109 -280 235 -280c78 0 152 46 194 120c8 17 25 29 46 29c28 0 50 -22 50 -50c0 -10 -3 -19 -8 -27c-62 -103 -164 -172 -282 -172c-190 0 -345 177 -345 395s155 395 345 395c179 0 317 -159 333 -360c0 -28 -22 -50 -50 -50zM486 660
c-107 0 -196 -89 -225 -210h441c-27 122 -110 210 -216 210zM459 854l129 240c19 36 65 48 104 48c44 0 84 -19 84 -45c0 -10 -7 -20 -20 -33l-223 -224c-11 -11 -28 -15 -43 -15c-18 0 -34 8 -34 19c0 3 1 6 3 10z" />
    <glyph glyph-name="ecircumflex" unicode="&#xea;" 
d="M769 350h-518c6 -156 109 -280 235 -280c78 0 152 46 194 120c8 17 25 29 46 29c28 0 50 -22 50 -50c0 -10 -3 -19 -8 -27c-62 -103 -164 -172 -282 -172c-190 0 -345 177 -345 395s155 395 345 395c179 0 317 -159 333 -360c0 -28 -22 -50 -50 -50zM486 660
c-107 0 -196 -89 -225 -210h441c-27 122 -110 210 -216 210zM193 847c-9 10 -13 22 -13 33c0 14 6 28 17 38l249 223c9 8 20 13 34 13c13 0 25 -5 34 -13l249 -223c11 -10 17 -24 17 -38c0 -27 -24 -50 -51 -50c-11 0 -23 4 -33 13l-216 194l-216 -194
c-10 -9 -22 -13 -34 -13c-13 0 -27 6 -37 17z" />
    <glyph glyph-name="edieresis" unicode="&#xeb;" 
d="M769 350h-518c6 -156 109 -280 235 -280c78 0 152 46 194 120c8 17 25 29 46 29c28 0 50 -22 50 -50c0 -10 -3 -19 -8 -27c-62 -103 -164 -172 -282 -172c-190 0 -345 177 -345 395s155 395 345 395c179 0 317 -159 333 -360c0 -28 -22 -50 -50 -50zM486 660
c-107 0 -196 -89 -225 -210h441c-27 122 -110 210 -216 210zM240 970c0 50 40 90 90 90s90 -40 90 -90s-40 -90 -90 -90s-90 40 -90 90zM540 970c0 50 40 90 90 90s90 -40 90 -90s-40 -90 -90 -90s-90 40 -90 90z" />
    <glyph glyph-name="ograve" unicode="&#xf2;" 
d="M135 365c0 218 155 395 345 395s345 -177 345 -395s-155 -395 -345 -395s-345 177 -345 395zM245 365c0 -163 105 -295 235 -295s235 132 235 295s-105 295 -235 295s-235 -132 -235 -295zM391 1094l129 -240c2 -4 3 -7 3 -10c0 -11 -16 -19 -34 -19c-15 0 -32 4 -43 15
l-223 224c-13 13 -20 23 -20 33c0 26 40 45 84 45c39 0 85 -12 104 -48z" />
    <glyph glyph-name="oacute" unicode="&#xf3;" 
d="M135 365c0 218 155 395 345 395s345 -177 345 -395s-155 -395 -345 -395s-345 177 -345 395zM245 365c0 -163 105 -295 235 -295s235 132 235 295s-105 295 -235 295s-235 -132 -235 -295zM431 854l129 240c19 36 65 48 104 48c44 0 84 -19 84 -45c0 -10 -7 -20 -20 -33
l-223 -224c-11 -11 -28 -15 -43 -15c-18 0 -34 8 -34 19c0 3 1 6 3 10z" />
    <glyph glyph-name="ocircumflex" unicode="&#xf4;" 
d="M135 365c0 218 155 395 345 395s345 -177 345 -395s-155 -395 -345 -395s-345 177 -345 395zM245 365c0 -163 105 -295 235 -295s235 132 235 295s-105 295 -235 295s-235 -132 -235 -295zM193 847c-9 10 -13 22 -13 33c0 14 6 28 17 38l249 223c9 8 20 13 34 13
c13 0 25 -5 34 -13l249 -223c11 -10 17 -24 17 -38c0 -27 -24 -50 -51 -50c-11 0 -23 4 -33 13l-216 194l-216 -194c-10 -9 -22 -13 -34 -13c-13 0 -27 6 -37 17z" />
    <glyph glyph-name="otilde" unicode="&#xf5;" 
d="M135 365c0 218 155 395 345 395s345 -177 345 -395s-155 -395 -345 -395s-345 177 -345 395zM245 365c0 -163 105 -295 235 -295s235 132 235 295s-105 295 -235 295s-235 -132 -235 -295zM740 1060c0 -152 -69 -200 -141 -200c-79 0 -134 76 -159 110
c-16 22 -52 70 -79 70c-21 0 -41 -24 -41 -100c0 -28 -22 -50 -50 -50s-50 22 -50 50c0 152 68 200 141 200c78 0 135 -76 159 -110c15 -22 52 -70 79 -70c21 0 41 25 41 100c0 28 22 50 50 50s50 -22 50 -50z" />
    <glyph glyph-name="odieresis" unicode="&#xf6;" 
d="M135 365c0 218 155 395 345 395s345 -177 345 -395s-155 -395 -345 -395s-345 177 -345 395zM245 365c0 -163 105 -295 235 -295s235 132 235 295s-105 295 -235 295s-235 -132 -235 -295zM240 970c0 50 40 90 90 90s90 -40 90 -90s-40 -90 -90 -90s-90 40 -90 90z
M540 970c0 50 40 90 90 90s90 -40 90 -90s-40 -90 -90 -90s-90 40 -90 90z" />
    <glyph glyph-name="ugrave" unicode="&#xf9;" 
d="M765 680v-580h120c28 0 50 -22 50 -50s-22 -50 -50 -50h-170c-28 0 -50 22 -50 50v121c-70 -83 -196 -201 -311 -201c-113 0 -189 84 -189 204v456h-90c-28 0 -50 22 -50 50s22 50 50 50h140c28 0 50 -22 50 -50v-428c0 -134 34 -182 93 -182c76 0 242 156 307 277v283
h-80c-28 0 -50 22 -50 50s22 50 50 50h130c28 0 50 -22 50 -50zM302 1094l129 -240c2 -4 3 -7 3 -10c0 -11 -16 -19 -34 -19c-15 0 -32 4 -43 15l-223 224c-13 13 -20 23 -20 33c0 26 40 45 84 45c39 0 85 -12 104 -48z" />
    <glyph glyph-name="uacute" unicode="&#xfa;" 
d="M765 680v-580h120c28 0 50 -22 50 -50s-22 -50 -50 -50h-170c-28 0 -50 22 -50 50v121c-70 -83 -196 -201 -311 -201c-113 0 -189 84 -189 204v456h-90c-28 0 -50 22 -50 50s22 50 50 50h140c28 0 50 -22 50 -50v-428c0 -134 34 -182 93 -182c76 0 242 156 307 277v283
h-80c-28 0 -50 22 -50 50s22 50 50 50h130c28 0 50 -22 50 -50zM384 854l129 240c19 36 65 48 104 48c44 0 84 -19 84 -45c0 -10 -7 -20 -20 -33l-223 -224c-11 -11 -28 -15 -43 -15c-18 0 -34 8 -34 19c0 3 1 6 3 10z" />
    <glyph glyph-name="ucircumflex" unicode="&#xfb;" 
d="M765 680v-580h120c28 0 50 -22 50 -50s-22 -50 -50 -50h-170c-28 0 -50 22 -50 50v121c-70 -83 -196 -201 -311 -201c-113 0 -189 84 -189 204v456h-90c-28 0 -50 22 -50 50s22 50 50 50h140c28 0 50 -22 50 -50v-428c0 -134 34 -182 93 -182c76 0 242 156 307 277v283
h-80c-28 0 -50 22 -50 50s22 50 50 50h130c28 0 50 -22 50 -50zM132 847c-9 10 -13 22 -13 33c0 14 6 28 17 38l249 223c9 8 20 13 34 13c13 0 25 -5 34 -13l249 -223c11 -10 17 -24 17 -38c0 -27 -24 -50 -51 -50c-11 0 -23 4 -33 13l-216 194l-216 -194
c-10 -9 -22 -13 -34 -13c-13 0 -27 6 -37 17z" />
    <glyph glyph-name="udieresis" unicode="&#xfc;" 
d="M765 680v-580h120c28 0 50 -22 50 -50s-22 -50 -50 -50h-170c-28 0 -50 22 -50 50v121c-70 -83 -196 -201 -311 -201c-113 0 -189 84 -189 204v456h-90c-28 0 -50 22 -50 50s22 50 50 50h140c28 0 50 -22 50 -50v-428c0 -134 34 -182 93 -182c76 0 242 156 307 277v283
h-80c-28 0 -50 22 -50 50s22 50 50 50h130c28 0 50 -22 50 -50zM179 970c0 50 40 90 90 90s90 -40 90 -90s-40 -90 -90 -90s-90 40 -90 90zM479 970c0 50 40 90 90 90s90 -40 90 -90s-40 -90 -90 -90s-90 40 -90 90z" />
    <glyph glyph-name="Odieresis" unicode="&#xd6;" 
d="M105 500c0 293 144 530 375 530s375 -237 375 -530s-170 -530 -375 -530c-231 0 -375 237 -375 530zM215 500c0 -237 96 -430 265 -430c149 0 265 193 265 430s-96 430 -265 430s-265 -193 -265 -430zM240 1240c0 50 40 90 90 90s90 -40 90 -90s-40 -90 -90 -90
s-90 40 -90 90zM540 1240c0 50 40 90 90 90s90 -40 90 -90s-40 -90 -90 -90s-90 40 -90 90z" />
    <glyph glyph-name="Ograve" unicode="&#xd2;" 
d="M105 500c0 293 144 530 375 530s375 -237 375 -530s-170 -530 -375 -530c-231 0 -375 237 -375 530zM215 500c0 -237 96 -430 265 -430c149 0 265 193 265 430s-96 430 -265 430s-265 -193 -265 -430zM400 1364l129 -240c2 -4 3 -7 3 -10c0 -11 -16 -19 -34 -19
c-15 0 -32 4 -43 15l-223 224c-13 13 -20 23 -20 33c0 26 40 45 84 45c39 0 85 -12 104 -48z" />
    <glyph glyph-name="Oacute" unicode="&#xd3;" 
d="M105 500c0 293 144 530 375 530s375 -237 375 -530s-170 -530 -375 -530c-231 0 -375 237 -375 530zM215 500c0 -237 96 -430 265 -430c149 0 265 193 265 430s-96 430 -265 430s-265 -193 -265 -430zM426 1124l129 240c19 36 65 48 104 48c44 0 84 -19 84 -45
c0 -10 -7 -20 -20 -33l-223 -224c-11 -11 -28 -15 -43 -15c-18 0 -34 8 -34 19c0 3 1 6 3 10z" />
    <glyph glyph-name="Ocircumflex" unicode="&#xd4;" 
d="M105 500c0 293 144 530 375 530s375 -237 375 -530s-170 -530 -375 -530c-231 0 -375 237 -375 530zM215 500c0 -237 96 -430 265 -430c149 0 265 193 265 430s-96 430 -265 430s-265 -193 -265 -430zM193 1117c-9 10 -13 22 -13 33c0 14 6 28 17 38l249 223
c9 8 20 13 34 13c13 0 25 -5 34 -13l249 -223c11 -10 17 -24 17 -38c0 -27 -24 -50 -51 -50c-11 0 -23 4 -33 13l-216 194l-216 -194c-10 -9 -22 -13 -34 -13c-13 0 -27 6 -37 17z" />
    <glyph glyph-name="Ntilde" unicode="&#xd1;" 
d="M110 0c-28 0 -50 22 -50 50s22 50 50 50h100v800h-100c-28 0 -50 22 -50 50s22 50 50 50h210c22 0 39 -14 47 -33l303 -704v637h-100c-28 0 -50 22 -50 50s22 50 50 50h310c28 0 50 -22 50 -50s-22 -50 -50 -50h-110v-880c0 -28 -22 -50 -50 -50c-21 0 -38 12 -46 30
l-364 846v-746h110c28 0 50 -22 50 -50s-22 -50 -50 -50h-310zM740 1330c0 -152 -69 -200 -141 -200c-79 0 -134 76 -159 110c-16 22 -52 70 -79 70c-21 0 -41 -24 -41 -100c0 -28 -22 -50 -50 -50s-50 22 -50 50c0 152 68 200 141 200c78 0 135 -76 159 -110
c15 -22 52 -70 79 -70c21 0 41 25 41 100c0 28 22 50 50 50s50 -22 50 -50z" />
    <glyph glyph-name="Icircumflex" unicode="&#xce;" 
d="M840 50c0 -28 -22 -50 -50 -50h-620c-28 0 -50 22 -50 50s22 50 50 50h260v800h-250c-28 0 -50 22 -50 50s22 50 50 50h600c28 0 50 -22 50 -50s-22 -50 -50 -50h-250v-800h260c28 0 50 -22 50 -50zM193 1117c-9 10 -13 22 -13 33c0 14 6 28 17 38l249 223
c9 8 20 13 34 13c13 0 25 -5 34 -13l249 -223c11 -10 17 -24 17 -38c0 -27 -24 -50 -51 -50c-11 0 -23 4 -33 13l-216 194l-216 -194c-10 -9 -22 -13 -34 -13c-13 0 -27 6 -37 17z" />
    <glyph glyph-name="Igrave" unicode="&#xcc;" 
d="M840 50c0 -28 -22 -50 -50 -50h-620c-28 0 -50 22 -50 50s22 50 50 50h260v800h-250c-28 0 -50 22 -50 50s22 50 50 50h600c28 0 50 -22 50 -50s-22 -50 -50 -50h-250v-800h260c28 0 50 -22 50 -50zM405 1364l129 -240c2 -4 3 -7 3 -10c0 -11 -16 -19 -34 -19
c-15 0 -32 4 -43 15l-223 224c-13 13 -20 23 -20 33c0 26 40 45 84 45c39 0 85 -12 104 -48z" />
    <glyph glyph-name="Egrave" unicode="&#xc8;" 
d="M839 393c28 0 50 -20 50 -49c0 -6 -1 -15 -2 -24l-28 -273c-3 -27 -23 -47 -50 -47h-691c-28 0 -50 22 -50 50s22 50 50 50h160v800h-160c-28 0 -50 22 -50 50s22 50 50 50h662c24 0 43 -17 49 -39l60 -244c1 -4 2 -9 2 -13c0 -25 -22 -49 -51 -49c-22 0 -42 15 -48 38
l-52 207h-362v-300h211v100c0 28 22 50 50 50s50 -22 50 -50v-320c0 -28 -22 -50 -50 -50s-50 22 -50 50v120h-211v-400h386l26 248c3 26 24 45 49 45zM405 1364l129 -240c2 -4 3 -7 3 -10c0 -11 -16 -19 -34 -19c-15 0 -32 4 -43 15l-223 224c-13 13 -20 23 -20 33
c0 26 40 45 84 45c39 0 85 -12 104 -48z" />
    <glyph glyph-name="Ecircumflex" unicode="&#xca;" 
d="M839 393c28 0 50 -20 50 -49c0 -6 -1 -15 -2 -24l-28 -273c-3 -27 -23 -47 -50 -47h-691c-28 0 -50 22 -50 50s22 50 50 50h160v800h-160c-28 0 -50 22 -50 50s22 50 50 50h662c24 0 43 -17 49 -39l60 -244c1 -4 2 -9 2 -13c0 -25 -22 -49 -51 -49c-22 0 -42 15 -48 38
l-52 207h-362v-300h211v100c0 28 22 50 50 50s50 -22 50 -50v-320c0 -28 -22 -50 -50 -50s-50 22 -50 50v120h-211v-400h386l26 248c3 26 24 45 49 45zM193 1117c-9 10 -13 22 -13 33c0 14 6 28 17 38l249 223c9 8 20 13 34 13c13 0 25 -5 34 -13l249 -223
c11 -10 17 -24 17 -38c0 -27 -24 -50 -51 -50c-11 0 -23 4 -33 13l-216 194l-216 -194c-10 -9 -22 -13 -34 -13c-13 0 -27 6 -37 17z" />
    <glyph glyph-name="Adieresis" unicode="&#xc4;" 
d="M480 1030c22 0 43 -14 49 -39l211 -891h130c28 0 50 -22 50 -50s-22 -50 -50 -50h-320c-28 0 -50 22 -50 50s22 50 50 50h86l-33 140h-279l-39 -140h75c28 0 50 -22 50 -50s-22 -50 -50 -50h-270c-28 0 -50 22 -50 50s22 50 50 50h92l249 891c7 25 26 39 49 39zM476 778
c-41 -147 -82 -292 -123 -438h226zM240 1240c0 50 40 90 90 90s90 -40 90 -90s-40 -90 -90 -90s-90 40 -90 90zM540 1240c0 50 40 90 90 90s90 -40 90 -90s-40 -90 -90 -90s-90 40 -90 90z" />
    <glyph glyph-name="Aacute" unicode="&#xc1;" 
d="M480 1030c22 0 43 -14 49 -39l211 -891h130c28 0 50 -22 50 -50s-22 -50 -50 -50h-320c-28 0 -50 22 -50 50s22 50 50 50h86l-33 140h-279l-39 -140h75c28 0 50 -22 50 -50s-22 -50 -50 -50h-270c-28 0 -50 22 -50 50s22 50 50 50h92l249 891c7 25 26 39 49 39zM476 778
c-41 -147 -82 -292 -123 -438h226zM454 1124l129 240c19 36 65 48 104 48c44 0 84 -19 84 -45c0 -10 -7 -20 -20 -33l-223 -224c-11 -11 -28 -15 -43 -15c-18 0 -34 8 -34 19c0 3 1 6 3 10z" />
    <glyph glyph-name="Scaron" unicode="&#x160;" 
d="M185 400c28 0 50 -22 50 -50c0 -166 134 -280 273 -280c116 0 207 77 207 196c0 176 -125 222 -247 246c-159 31 -323 63 -323 266c0 170 163 252 290 252c101 0 194 -38 260 -94v14c0 28 22 50 50 50s50 -22 50 -50v-200c0 -28 -22 -50 -50 -50s-50 22 -50 50
c0 91 -122 180 -260 180c-83 0 -180 -50 -180 -152c0 -123 112 -145 231 -168c165 -32 339 -86 339 -344c0 -179 -147 -296 -317 -296c-104 0 -203 45 -273 121v-41c0 -28 -22 -50 -50 -50s-50 22 -50 50v300c0 28 22 50 50 50zM193 1391c10 11 24 17 37 17
c12 0 24 -4 34 -13l216 -194l216 194c10 9 22 13 33 13c27 0 51 -23 51 -51c0 -13 -6 -27 -17 -37l-249 -223c-9 -8 -21 -13 -34 -13c-14 0 -25 5 -34 13l-249 223c-11 10 -17 24 -17 37c0 12 4 24 13 34z" />
    <glyph glyph-name="Ydieresis" unicode="&#x178;" 
d="M492 515l172 385h-64c-28 0 -50 22 -50 50s22 50 50 50h270c28 0 50 -22 50 -50s-22 -50 -50 -50h-95l-225 -504v-296h200c28 0 50 -22 50 -50s-22 -50 -50 -50h-500c-28 0 -50 22 -50 50s22 50 50 50h200v275l-256 525h-104c-28 0 -50 22 -50 50s22 50 50 50h270
c28 0 50 -22 50 -50s-22 -50 -50 -50h-55zM240 1240c0 50 40 90 90 90s90 -40 90 -90s-40 -90 -90 -90s-90 40 -90 90zM540 1240c0 50 40 90 90 90s90 -40 90 -90s-40 -90 -90 -90s-90 40 -90 90z" />
    <glyph glyph-name="Uacute" unicode="&#xda;" 
d="M940 950c0 -28 -22 -50 -50 -50h-100v-655c0 -147 -138 -265 -310 -265s-310 118 -310 265v655h-100c-28 0 -50 22 -50 50s22 50 50 50h310c28 0 50 -22 50 -50s-22 -50 -50 -50h-110v-655c0 -91 94 -165 210 -165s210 74 210 165v655h-110c-28 0 -50 22 -50 50
s22 50 50 50h310c28 0 50 -22 50 -50zM446 1124l129 240c19 36 65 48 104 48c44 0 84 -19 84 -45c0 -10 -7 -20 -20 -33l-223 -224c-11 -11 -28 -15 -43 -15c-18 0 -34 8 -34 19c0 3 1 6 3 10z" />
    <glyph glyph-name="Ucircumflex" unicode="&#xdb;" 
d="M940 950c0 -28 -22 -50 -50 -50h-100v-655c0 -147 -138 -265 -310 -265s-310 118 -310 265v655h-100c-28 0 -50 22 -50 50s22 50 50 50h310c28 0 50 -22 50 -50s-22 -50 -50 -50h-110v-655c0 -91 94 -165 210 -165s210 74 210 165v655h-110c-28 0 -50 22 -50 50
s22 50 50 50h310c28 0 50 -22 50 -50zM193 1117c-9 10 -13 22 -13 33c0 14 6 28 17 38l249 223c9 8 20 13 34 13c13 0 25 -5 34 -13l249 -223c11 -10 17 -24 17 -38c0 -27 -24 -50 -51 -50c-11 0 -23 4 -33 13l-216 194l-216 -194c-10 -9 -22 -13 -34 -13
c-13 0 -27 6 -37 17z" />
    <glyph glyph-name="Udieresis" unicode="&#xdc;" 
d="M940 950c0 -28 -22 -50 -50 -50h-100v-655c0 -147 -138 -265 -310 -265s-310 118 -310 265v655h-100c-28 0 -50 22 -50 50s22 50 50 50h310c28 0 50 -22 50 -50s-22 -50 -50 -50h-110v-655c0 -91 94 -165 210 -165s210 74 210 165v655h-110c-28 0 -50 22 -50 50
s22 50 50 50h310c28 0 50 -22 50 -50zM240 1240c0 50 40 90 90 90s90 -40 90 -90s-40 -90 -90 -90s-90 40 -90 90zM540 1240c0 50 40 90 90 90s90 -40 90 -90s-40 -90 -90 -90s-90 40 -90 90z" />
    <glyph glyph-name="icircumflex" unicode="&#xee;" 
d="M150 680c0 28 22 50 50 50h300c28 0 50 -22 50 -50v-580h260c28 0 50 -22 50 -50s-22 -50 -50 -50h-620c-28 0 -50 22 -50 50s22 50 50 50h260v530h-250c-28 0 -50 22 -50 50zM193 847c-9 10 -13 22 -13 33c0 14 6 28 17 38l249 223c9 8 20 13 34 13c13 0 25 -5 34 -13
l249 -223c11 -10 17 -24 17 -38c0 -27 -24 -50 -51 -50c-11 0 -23 4 -33 13l-216 194l-216 -194c-10 -9 -22 -13 -34 -13c-13 0 -27 6 -37 17z" />
    <glyph glyph-name="iacute" unicode="&#xed;" 
d="M150 680c0 28 22 50 50 50h300c28 0 50 -22 50 -50v-580h260c28 0 50 -22 50 -50s-22 -50 -50 -50h-620c-28 0 -50 22 -50 50s22 50 50 50h260v530h-250c-28 0 -50 22 -50 50zM468 854l129 240c19 36 65 48 104 48c44 0 84 -19 84 -45c0 -10 -7 -20 -20 -33l-223 -224
c-11 -11 -28 -15 -43 -15c-18 0 -34 8 -34 19c0 3 1 6 3 10z" />
    <glyph glyph-name="ydieresis" unicode="&#xff;" 
d="M543 164c56 155 112 314 166 466h-69c-28 0 -50 22 -50 50s22 50 50 50h190c28 0 50 -22 50 -50s-22 -50 -50 -50h-15l-238 -667c-56 -155 -119 -263 -295 -263c-100 0 -187 68 -187 183c0 45 26 127 105 127c50 0 90 -40 90 -90c0 -47 -36 -85 -83 -89
c16 -19 44 -31 75 -31c113 0 160 83 201 197c3 9 7 19 10 29l-256 604h-17c-28 0 -50 22 -50 50s22 50 50 50h210c28 0 50 -22 50 -50s-22 -50 -50 -50h-84zM300 970c0 50 40 90 90 90s90 -40 90 -90s-40 -90 -90 -90s-90 40 -90 90zM600 970c0 50 40 90 90 90
s90 -40 90 -90s-40 -90 -90 -90s-90 40 -90 90z" />
    <glyph glyph-name="partialdiff" unicode="&#x2202;" 
d="M200 980c0 28 22 50 50 50c315 0 570 -300 570 -670c0 -216 -147 -390 -330 -390c-194 0 -350 174 -350 390c0 221 154 400 345 400c42 0 82 -9 119 -26c-87 120 -213 196 -354 196c-28 0 -50 22 -50 50zM490 70c127 0 230 130 230 290c0 165 -106 300 -235 300
c-135 0 -245 -135 -245 -300c0 -160 112 -290 250 -290z" />
    <glyph glyph-name="MathDelta" unicode="&#x2206;" 
d="M80 50c0 8 1 12 3 17l350 930c7 20 25 33 47 33s41 -14 47 -33l350 -930c1 -3 3 -9 3 -17c0 -28 -22 -50 -50 -50h-700c-28 0 -50 22 -50 50zM758 100l-278 736c-95 -253 -178 -469 -278 -736h556z" />
    <glyph glyph-name="gradient" unicode="&#x2207;" 
d="M880 950c0 -8 -1 -12 -3 -17l-350 -930c-7 -20 -25 -33 -47 -33s-40 14 -47 33l-350 930c-1 3 -3 9 -3 17c0 28 22 50 50 50h700c28 0 50 -22 50 -50zM202 900l278 -736c95 253 178 469 278 736h-556z" />
    <glyph glyph-name="product" unicode="&#x220f;" 
d="M425 -220c0 -28 -22 -50 -50 -50h-300c-28 0 -50 22 -50 50s22 50 50 50h110v1070h-100c-28 0 -50 22 -50 50s22 50 50 50h790c28 0 50 -22 50 -50s-22 -50 -50 -50h-100v-1070h110c28 0 50 -22 50 -50s-22 -50 -50 -50h-300c-28 0 -50 22 -50 50s22 50 50 50h90v1070
h-390v-1070h90c28 0 50 -22 50 -50z" />
    <glyph glyph-name="uni2210" unicode="&#x2210;" 
d="M535 950c0 28 22 50 50 50h300c28 0 50 -22 50 -50s-22 -50 -50 -50h-110v-1070h100c28 0 50 -22 50 -50s-22 -50 -50 -50h-790c-28 0 -50 22 -50 50s22 50 50 50h100v1070h-110c-28 0 -50 22 -50 50s22 50 50 50h300c28 0 50 -22 50 -50s-22 -50 -50 -50h-90v-1070h390
v1070h-90c-28 0 -50 22 -50 50z" />
    <glyph glyph-name="summation" unicode="&#x2211;" 
d="M847 123c28 -3 47 -27 44 -55l-30 -291c-2 -26 -23 -47 -50 -47h-691c-28 0 -50 22 -50 50c0 12 4 21 8 27l353 563c-117 182 -235 371 -353 553c-4 6 -8 15 -8 27c0 28 22 50 50 50h662c24 0 44 -17 49 -39l60 -244c7 -27 -9 -53 -36 -60s-54 9 -61 36l-52 207h-531
l321 -503c5 -8 8 -16 8 -27c0 -12 -3 -20 -9 -29l-321 -511h556l26 248c3 28 27 48 55 45z" />
    <glyph glyph-name="uni2213" unicode="&#x2213;" 
d="M860 350c0 -28 -22 -50 -50 -50h-280v-280c0 -28 -22 -50 -50 -50s-50 22 -50 50v280h-280c-28 0 -50 22 -50 50s22 50 50 50h280v280c0 28 22 50 50 50s50 -22 50 -50v-280h280c28 0 50 -22 50 -50zM860 850c0 -28 -22 -50 -50 -50h-660c-28 0 -50 22 -50 50
s22 50 50 50h660c28 0 50 -22 50 -50z" />
    <glyph glyph-name="proportional" unicode="&#x221d;" 
d="M710 280c28 0 50 -22 50 -50s-22 -50 -50 -50c-108 0 -173 85 -227 179c-45 -68 -99 -119 -183 -119c-111 0 -205 98 -205 220s94 220 205 220c84 0 138 -51 183 -119c54 94 119 179 227 179c28 0 50 -22 50 -50s-22 -50 -50 -50c-72 0 -121 -91 -168 -180
c47 -89 96 -180 168 -180zM428 460c-37 65 -78 120 -128 120c-55 0 -95 -54 -95 -120s40 -120 95 -120c50 0 91 55 128 120z" />
    <glyph glyph-name="infinity" unicode="&#x221e;" 
d="M680 720c116 0 210 -103 210 -260s-94 -260 -210 -260c-101 0 -168 76 -221 160c-46 -68 -101 -120 -189 -120c-111 0 -200 98 -200 220s89 220 200 220c88 0 143 -52 189 -121c52 85 116 161 221 161zM518 460c45 -81 93 -160 162 -160c61 0 110 63 110 160
s-49 160 -110 160c-69 0 -117 -79 -162 -160zM401 460c-38 64 -79 120 -131 120c-55 0 -100 -54 -100 -120s45 -120 100 -120c52 0 93 55 131 120z" />
    <glyph glyph-name="approxequal" unicode="&#x2248;" 
d="M742 410c0 28 22 50 50 50s50 -22 50 -50c0 -189 -122 -250 -200 -250c-69 0 -137 20 -205 134c-44 73 -81 86 -119 86c-39 0 -100 -38 -100 -150c0 -28 -22 -50 -50 -50s-50 22 -50 50c0 188 121 250 200 250c69 0 137 -20 205 -134c44 -73 81 -86 119 -86
c39 0 100 37 100 150zM742 710c0 28 22 50 50 50s50 -22 50 -50c0 -189 -122 -250 -200 -250c-69 0 -137 20 -205 134c-44 73 -81 86 -119 86c-39 0 -100 -38 -100 -150c0 -28 -22 -50 -50 -50s-50 22 -50 50c0 188 121 250 200 250c69 0 137 -20 205 -134
c44 -73 81 -86 119 -86c39 0 100 37 100 150z" />
    <glyph glyph-name="notequal" unicode="&#x2260;" 
d="M452 520h-302c-28 0 -50 22 -50 50s22 50 50 50h334l44 133c7 21 26 35 47 35c31 0 51 -25 51 -51c0 -5 -1 -10 -2 -15l-34 -102h220c28 0 50 -22 50 -50s-22 -50 -50 -50h-252l-65 -200h317c28 0 50 -22 50 -50s-22 -50 -50 -50h-350l-40 -125c-7 -22 -27 -35 -47 -35
c-31 0 -51 25 -51 51c0 5 0 10 2 15l30 94h-204c-28 0 -50 22 -50 50s22 50 50 50h237z" />
    <glyph glyph-name="radical" unicode="&#x221a;" 
d="M617 187l154 1040c3 21 21 43 49 43s50 -22 50 -50c0 -5 -1 -9 -1 -10l-179 -1201c-3 -22 -24 -39 -48 -39c-19 0 -35 10 -43 24l-382 688l-103 -56c-5 -3 -14 -6 -24 -6c-28 0 -50 22 -50 50c0 22 14 37 27 44l147 79c8 4 17 7 26 7c18 0 35 -10 43 -24z" />
    <glyph glyph-name="intersection" unicode="&#x2229;" 
d="M480 1020c182 0 330 -148 330 -330v-640c0 -28 -22 -50 -50 -50s-50 22 -50 50v640c0 127 -103 230 -230 230s-230 -103 -230 -230v-640c0 -28 -22 -50 -50 -50s-50 22 -50 50v640c0 182 148 330 330 330z" />
    <glyph glyph-name="union" unicode="&#x222a;" 
d="M480 -20c-182 0 -330 148 -330 330v640c0 28 22 50 50 50s50 -22 50 -50v-640c0 -127 103 -230 230 -230s230 103 230 230v640c0 28 22 50 50 50s50 -22 50 -50v-640c0 -182 -148 -330 -330 -330z" />
    <glyph glyph-name="integral" unicode="&#x222b;" 
d="M620 1120c84 0 152 -63 152 -140c0 -50 -40 -90 -90 -90s-90 40 -90 90c0 14 3 27 9 38c-44 -8 -71 -44 -71 -88v-1040c0 -105 -79 -190 -190 -190c-84 0 -152 63 -152 140c0 50 40 90 90 90s90 -40 90 -90c0 -14 -3 -27 -9 -38c44 8 71 44 71 88v1040
c0 105 79 190 190 190z" />
    <glyph glyph-name="lessequal" unicode="&#x2264;" 
d="M746 1005c17 0 34 -9 43 -25c5 -8 7 -17 7 -25c0 -17 -9 -34 -25 -43l-498 -287l498 -287c16 -9 25 -26 25 -43c0 -8 -2 -17 -7 -25c-9 -16 -26 -25 -43 -25c-8 0 -17 2 -25 7l-572 330c-13 7 -25 23 -25 43c0 17 9 34 25 43l572 330c8 5 17 7 25 7zM860 120
c0 -28 -22 -50 -50 -50h-660c-28 0 -50 22 -50 50s22 50 50 50h660c28 0 50 -22 50 -50z" />
    <glyph glyph-name="greaterequal" unicode="&#x2265;" 
d="M214 1005c8 0 17 -2 25 -7l572 -330c16 -9 25 -26 25 -43c0 -20 -12 -36 -25 -43l-572 -330c-8 -5 -17 -7 -25 -7c-17 0 -34 9 -43 25c-5 8 -7 17 -7 25c0 17 9 34 25 43l498 287l-498 287c-16 9 -25 26 -25 43c0 8 2 17 7 25c9 16 26 25 43 25zM860 120
c0 -28 -22 -50 -50 -50h-660c-28 0 -50 22 -50 50s22 50 50 50h660c28 0 50 -22 50 -50z" />
    <glyph glyph-name="pi" unicode="&#x3c0;" 
d="M220 50c0 9 2 18 7 26c19 31 60 114 63 554h-40c-69 0 -100 -54 -100 -100c0 -28 -22 -50 -50 -50s-50 22 -50 50c0 90 61 200 200 200h550c28 0 50 -22 50 -50s-22 -50 -50 -50h-160v-500c0 -33 22 -60 50 -60s50 27 50 60c0 28 22 50 50 50s50 -22 50 -50
c0 -89 -68 -160 -150 -160c-83 0 -150 71 -150 160v500h-150c-4 -470 -54 -569 -77 -606c-9 -15 -25 -24 -43 -24c-28 0 -50 22 -50 50z" />
    <glyph glyph-name="Lslash" unicode="&#x141;" 
d="M848 0h-736c-28 0 -50 22 -50 50s22 50 50 50h236v328l-181 -152c-21 -18 -52 -15 -70 6c-18 22 -16 53 6 71l245 205v342h-225c-28 0 -50 22 -50 50s22 50 50 50h535c28 0 50 -22 50 -50s-22 -50 -50 -50h-210v-258l145 122c21 18 52 15 70 -6c18 -22 16 -53 -6 -71
l-209 -175v-412h350v325c0 28 22 50 50 50s50 -22 50 -50v-375c0 -28 -22 -50 -50 -50z" />
    <glyph glyph-name="lslash" unicode="&#x142;" 
d="M425 900h-190c-28 0 -50 22 -50 50s22 50 50 50h240c28 0 50 -22 50 -50v-327l168 141c21 18 52 15 70 -6c18 -22 16 -53 -6 -71l-232 -195v-392h260c28 0 50 -22 50 -50s-22 -50 -50 -50h-610c-28 0 -50 22 -50 50s22 50 50 50h250v308l-158 -132c-21 -18 -52 -15 -70 6
c-18 22 -16 53 6 71l222 186v361z" />
  </font>
</defs>
</svg>
